<svg width="20" height="20" viewBox="0 0 20 20" fill="none" xmlns="http://www.w3.org/2000/svg">
<path d="M9.99992 1.99993C5.5899 1.99993 1.99989 5.58994 1.99989 9.99996C1.99989 14.41 5.5899 18 9.99992 18C14.4099 18 18 14.41 18 9.99996C18 5.58994 14.4099 1.99993 9.99992 1.99993ZM9.99992 -8.22544e-05C15.5199 -8.22544e-05 20 4.47994 20 9.99996C20 15.52 15.5199 20 9.99992 20C4.4799 20 -0.00012207 15.52 -0.00012207 9.99996C-0.00012207 4.47994 4.4799 -8.22544e-05 9.99992 -8.22544e-05ZM8.99991 9.99996V5.99994H10.9999V9.99996H13.9999L9.99992 14L5.9999 9.99996H8.99991Z" fill="#65676F"/>
</svg>
