<svg width="20" height="21" viewBox="0 0 20 21" fill="none" xmlns="http://www.w3.org/2000/svg">
<path d="M9.99992 18.2755C5.5899 18.2755 1.99989 14.6854 1.99989 10.2754C1.99989 5.86541 5.5899 2.2754 9.99992 2.2754C14.4099 2.2754 18 5.86541 18 10.2754C18 14.6854 14.4099 18.2755 9.99992 18.2755ZM9.99992 20.2755C15.5199 20.2755 20 15.7955 20 10.2754C20 4.75541 15.5199 0.275391 9.99992 0.275391C4.4799 0.275391 -0.00012207 4.75541 -0.00012207 10.2754C-0.00012207 15.7955 4.4799 20.2755 9.99992 20.2755ZM8.99991 10.2754V14.2754H10.9999V10.2754H13.9999L9.99992 6.27542L5.9999 10.2754H8.99991Z" fill="#65676F"/>
</svg>
