<svg width="16" height="16" viewBox="0 0 16 16" fill="none" xmlns="http://www.w3.org/2000/svg">
<path d="M13.9231 4.18182H8.22279L6.38462 2.31978C6.28493 2.2181 6.16631 2.13747 6.03564 2.08258C5.90496 2.02769 5.76483 1.99962 5.62337 2H2.07692C1.79131 2 1.51739 2.11494 1.31542 2.31952C1.11346 2.52411 1 2.80159 1 3.09091V12.9514C1.00053 13.2294 1.10986 13.4959 1.30403 13.6925C1.49819 13.8891 1.76136 13.9996 2.03587 14H13.983C14.2526 13.9996 14.5111 13.891 14.7017 13.6979C14.8924 13.5047 14.9996 13.2429 15 12.9698V5.27273C15 4.9834 14.8865 4.70593 14.6846 4.50134C14.4826 4.29676 14.2087 4.18182 13.9231 4.18182ZM2.07692 3.09091H5.62337L6.70029 4.18182H2.07692V3.09091ZM9.61539 9.63637H8.53846V10.7273C8.53846 10.8719 8.48173 11.0107 8.38075 11.113C8.27977 11.2153 8.14281 11.2727 8 11.2727C7.85719 11.2727 7.72023 11.2153 7.61925 11.113C7.51827 11.0107 7.46154 10.8719 7.46154 10.7273V9.63637H6.38462C6.24181 9.63637 6.10485 9.5789 6.00387 9.47661C5.90288 9.37431 5.84615 9.23557 5.84615 9.09091C5.84615 8.94625 5.90288 8.80751 6.00387 8.70522C6.10485 8.60292 6.24181 8.54546 6.38462 8.54546H7.46154V7.45455C7.46154 7.30988 7.51827 7.17115 7.61925 7.06885C7.72023 6.96656 7.85719 6.90909 8 6.90909C8.14281 6.90909 8.27977 6.96656 8.38075 7.06885C8.48173 7.17115 8.53846 7.30988 8.53846 7.45455V8.54546H9.61539C9.75819 8.54546 9.89515 8.60292 9.99614 8.70522C10.0971 8.80751 10.1538 8.94625 10.1538 9.09091C10.1538 9.23557 10.0971 9.37431 9.99614 9.47661C9.89515 9.5789 9.75819 9.63637 9.61539 9.63637Z" fill="#414040"/>
</svg>
