<svg width="16" height="16" viewBox="0 0 16 16" fill="none" xmlns="http://www.w3.org/2000/svg">
<path d="M14.8123 6.60143C14.7195 6.46664 14.5974 6.35692 14.4562 6.28132C14.3149 6.20572 14.1585 6.16642 13.9998 6.16667H12.9999V5.11905C12.9999 4.8412 12.8945 4.57474 12.707 4.37827C12.5194 4.1818 12.2651 4.07143 11.9999 4.07143H7.66679L5.93369 2.70952C5.7603 2.57411 5.54996 2.50065 5.3337 2.5H1.99999C1.73477 2.5 1.48042 2.61037 1.29289 2.80684C1.10536 3.00331 1 3.26977 1 3.54762V12.9762C1 13.1151 1.05268 13.2483 1.14644 13.3466C1.24021 13.4448 1.36739 13.5 1.49999 13.5H12.6936C12.7986 13.5 12.9008 13.4654 12.986 13.4011C13.0711 13.3369 13.1348 13.2461 13.168 13.1418L14.9486 7.5456C14.9987 7.38813 15.0124 7.22047 14.9887 7.05636C14.965 6.89225 14.9046 6.73635 14.8123 6.60143ZM5.3337 3.54762L7.0668 4.90952C7.24015 5.04502 7.45051 5.11849 7.66679 5.11905H11.9999V6.16667H3.86059C3.6507 6.16665 3.44613 6.23582 3.27585 6.36438C3.10558 6.49294 2.97823 6.67438 2.91185 6.88298L1.99999 9.74821V3.54762H5.3337Z" fill="#414040"/>
</svg>
