<svg width="18" height="18" viewBox="0 0 18 18" fill="none" xmlns="http://www.w3.org/2000/svg">
<path d="M15 4.5H8.25L6.75 3H3C2.175 3 1.5 3.675 1.5 4.5V7.5H16.5V6C16.5 5.175 15.825 4.5 15 4.5Z" fill="#FFA000"/>
<path d="M15 4.5H3C2.175 4.5 1.5 5.175 1.5 6V13.5C1.5 14.325 2.175 15 3 15H15C15.825 15 16.5 14.325 16.5 13.5V6C16.5 5.175 15.825 4.5 15 4.5Z" fill="#FFCA28"/>
<rect x="11" y="5.75" width="1" height="1" fill="white"/>
<rect x="12" y="6.75" width="1" height="1" fill="white"/>
<rect x="11" y="7.75" width="1" height="1" fill="white"/>
<rect x="12" y="8.75" width="1" height="1" fill="white"/>
<rect x="11" y="9.75" width="1" height="1" fill="white"/>
<path fill-rule="evenodd" clip-rule="evenodd" d="M13 10.75H11V13.75H13V10.75ZM12.3025 11.75H11.6975V12.75H12.3025V11.75Z" fill="white"/>
</svg>
