<svg width="18" height="18" viewBox="0 0 18 18" fill="none" xmlns="http://www.w3.org/2000/svg">
<path d="M5.83646 10.9336C5.69696 10.9336 5.60246 10.9471 5.55371 10.9606V11.8553C5.61146 11.8688 5.68421 11.8726 5.78321 11.8726C6.14696 11.8726 6.37196 11.6881 6.37196 11.3783C6.37196 11.1001 6.17846 10.9336 5.83646 10.9336Z" fill="#107A40"/>
<path d="M10.5 1.5H4.5C4.10218 1.5 3.72064 1.65804 3.43934 1.93934C3.15804 2.22064 3 2.60218 3 3V15C3 15.3978 3.15804 15.7794 3.43934 16.0607C3.72064 16.342 4.10218 16.5 4.5 16.5H13.5C13.8978 16.5 14.2794 16.342 14.5607 16.0607C14.842 15.7794 15 15.3978 15 15V6L10.5 1.5ZM10.5 6.75H9.75V3L13.5 6.75H10.5Z" fill="#107A40"/>
<path fill-rule="evenodd" clip-rule="evenodd" d="M9.63867 11.8711L11.1289 9.74219H9.85156L9 10.9589L8.14844 9.74219H6.87109L8.36133 11.8711L6.87109 14H8.14844L9 12.7833L9.85156 14H11.1289L9.63867 11.8711Z" fill="white"/>
</svg>
