<svg width="18" height="18" viewBox="0 0 18 18" fill="none" xmlns="http://www.w3.org/2000/svg">
<path d="M5.83646 10.9336C5.69696 10.9336 5.60246 10.9471 5.55371 10.9606V11.8553C5.61146 11.8688 5.68421 11.8726 5.78321 11.8726C6.14696 11.8726 6.37196 11.6881 6.37196 11.3783C6.37196 11.1001 6.17846 10.9336 5.83646 10.9336Z" fill="#3697E5"/>
<path d="M10.5 1.5H4.5C4.10218 1.5 3.72064 1.65804 3.43934 1.93934C3.15804 2.22064 3 2.60218 3 3V15C3 15.3978 3.15804 15.7794 3.43934 16.0607C3.72064 16.342 4.10218 16.5 4.5 16.5H13.5C13.8978 16.5 14.2794 16.342 14.5607 16.0607C14.842 15.7794 15 15.3978 15 15V6L10.5 1.5ZM10.5 6.75H9.75V3L13.5 6.75H10.5Z" fill="#DD2025"/>
<path fill-rule="evenodd" clip-rule="evenodd" d="M8.16365 10.4026C8.1643 10.0889 8.14454 9.79778 8.09182 9.5796C8.06481 9.46729 8.01538 9.30979 7.90337 9.18973C7.82772 9.10628 7.72642 9.04919 7.61475 9.02707C7.49993 9.0055 7.38105 9.02185 7.27672 9.07354C7.19106 9.11568 7.11754 9.17816 7.06287 9.25528C7.0082 9.33241 6.97411 9.42171 6.96373 9.51506C6.94968 9.65099 6.96426 9.78829 7.00656 9.91848C7.06915 10.1302 7.18974 10.3723 7.33602 10.6208C7.31098 11.4573 7.15482 12.5689 6.93671 13.3318C6.70345 13.4441 6.48732 13.5745 6.34037 13.7236C6.24944 13.8159 6.13874 13.9625 6.12424 14.158C6.10711 14.3807 6.22177 14.5537 6.35685 14.6647C6.42934 14.7277 6.51618 14.7726 6.61008 14.7959C6.70398 14.8191 6.80221 14.82 6.89651 14.7984C7.08167 14.7538 7.20951 14.6325 7.2899 14.5344C7.41905 14.3769 7.52382 14.1574 7.60948 13.9224C8.28643 13.666 8.99131 13.4868 9.71016 13.3886C9.92695 13.5597 10.1503 13.7043 10.3592 13.7791C10.4851 13.8243 10.6584 13.8631 10.8389 13.8153C10.9341 13.7897 11.0216 13.7421 11.094 13.6765C11.1665 13.6109 11.2218 13.5292 11.2554 13.4383C11.3232 13.2653 11.3318 13.0485 11.1901 12.86C11.0702 12.7005 10.893 12.6315 10.7638 12.5973C10.5444 12.5392 10.2663 12.5327 9.97967 12.5521C9.35961 11.997 8.61699 11.1126 8.16365 10.4026ZM8.95766 12.6967C8.65785 12.3868 8.3554 12.0383 8.07996 11.6884C8.02988 12.1222 7.95938 12.5669 7.87174 12.9742C8.2286 12.8635 8.59106 12.7708 8.95766 12.6967ZM11.4124 9H6V14.8532H11.4124V9Z" fill="#DD2025"/>
<rect x="6.55078" y="8.76172" width="5.41235" height="5.85156" fill="white"/>
<path fill-rule="evenodd" clip-rule="evenodd" d="M8.71443 10.1643C8.71509 9.85061 8.69532 9.5595 8.6426 9.34132C8.61559 9.22901 8.56617 9.07151 8.45415 8.95145C8.3785 8.868 8.2772 8.81091 8.16553 8.78879C8.05071 8.76722 7.93183 8.78357 7.8275 8.83526C7.74184 8.8774 7.66832 8.93988 7.61365 9.017C7.55898 9.09412 7.52489 9.18343 7.51451 9.27677C7.50046 9.4127 7.51504 9.55001 7.55734 9.6802C7.61994 9.89192 7.74052 10.134 7.8868 10.3825C7.86177 11.219 7.7056 12.3306 7.48749 13.0935C7.25423 13.2059 7.0381 13.3362 6.89115 13.4853C6.80022 13.5777 6.68952 13.7242 6.67502 13.9198C6.65789 14.1425 6.77255 14.3154 6.90763 14.4265C6.98012 14.4894 7.06696 14.5344 7.16086 14.5576C7.25476 14.5809 7.35299 14.5817 7.4473 14.5601C7.63246 14.5155 7.76029 14.3942 7.84068 14.2961C7.96983 14.1386 8.0746 13.9191 8.16026 13.6842C8.83721 13.4277 9.54209 13.2486 10.2609 13.1503C10.4777 13.3214 10.7011 13.466 10.91 13.5409C11.0359 13.586 11.2092 13.6248 11.3897 13.577C11.4849 13.5514 11.5724 13.5038 11.6448 13.4382C11.7173 13.3726 11.7726 13.291 11.8061 13.2C11.874 13.0271 11.8826 12.8102 11.7409 12.6217C11.621 12.4623 11.4437 12.3932 11.3146 12.359C11.0952 12.3009 10.8171 12.2944 10.5304 12.3138C9.91039 11.7587 9.16777 10.8744 8.71443 10.1643ZM9.50844 12.4584C9.20863 12.1485 8.90618 11.8 8.63074 11.4501C8.58066 11.8839 8.51016 12.3286 8.42252 12.7359C8.77938 12.6252 9.14184 12.5326 9.50844 12.4584ZM11.9631 8.76172H6.55078V14.6149H11.9631V8.76172Z" fill="#DD2025"/>
</svg>
