<svg width="18" height="18" viewBox="0 0 18 18" fill="none" xmlns="http://www.w3.org/2000/svg">
<path d="M15.1875 2.8125H2.8125C2.51413 2.8125 2.22798 2.93103 2.017 3.142C1.80603 3.35298 1.6875 3.63913 1.6875 3.9375V14.0625C1.6875 14.3609 1.80603 14.647 2.017 14.858C2.22798 15.069 2.51413 15.1875 2.8125 15.1875H15.1875C15.4859 15.1875 15.772 15.069 15.983 14.858C16.194 14.647 16.3125 14.3609 16.3125 14.0625V3.9375C16.3125 3.63913 16.194 3.35298 15.983 3.142C15.772 2.93103 15.4859 2.8125 15.1875 2.8125ZM10.9688 6.1875C11.1356 6.1875 11.2988 6.23698 11.4375 6.3297C11.5763 6.42241 11.6844 6.55419 11.7483 6.70836C11.8121 6.86254 11.8288 7.03219 11.7963 7.19586C11.7637 7.35953 11.6834 7.50987 11.5654 7.62787C11.4474 7.74587 11.297 7.82623 11.1334 7.85879C10.9697 7.89134 10.8 7.87463 10.6459 7.81077C10.4917 7.74691 10.3599 7.63877 10.2672 7.50001C10.1745 7.36126 10.125 7.19813 10.125 7.03125C10.125 6.80747 10.2139 6.59286 10.3721 6.43463C10.5304 6.27639 10.745 6.1875 10.9688 6.1875ZM2.8125 14.0625V12.0938L6.46875 8.4375L12.0938 14.0625H2.8125ZM15.1875 14.0625H13.6849L11.1537 11.5312L12.5599 10.125L15.1875 12.7533V14.0625Z" fill="#94CAE8"/>
<rect x="2" y="8" width="14" height="6.44531" fill="#94C9E8"/>
<circle cx="11" cy="7" r="1.18359" fill="#FFC700"/>
<path d="M2.78906 12.176V13.6898C2.78906 13.9108 2.96815 14.0898 3.18906 14.0898H11.1813C11.5377 14.0898 11.7162 13.659 11.4642 13.407L6.71111 8.65394C6.5549 8.49773 6.30163 8.49773 6.14542 8.65394L2.90622 11.8931C2.83121 11.9682 2.78906 12.0699 2.78906 12.176Z" fill="#238C51"/>
<path d="M15.5818 13.2153V13.6909C15.5818 13.9118 15.4027 14.0909 15.1818 14.0909H13.6649C13.5588 14.0909 13.4571 14.0488 13.3821 13.9738L11.1788 11.7706C11.0226 11.6143 11.0226 11.3611 11.1788 11.2049L12.1751 10.2086C12.3313 10.0524 12.5846 10.0524 12.7408 10.2086L15.4646 12.9325C15.5396 13.0075 15.5818 13.1092 15.5818 13.2153Z" fill="#238C51"/>
</svg>
