<svg width="18" height="18" viewBox="0 0 18 18" fill="none" xmlns="http://www.w3.org/2000/svg">
<path d="M5.83646 10.9336C5.69696 10.9336 5.60246 10.9471 5.55371 10.9606V11.8553C5.61146 11.8688 5.68421 11.8726 5.78321 11.8726C6.14696 11.8726 6.37196 11.6881 6.37196 11.3783C6.37196 11.1001 6.17846 10.9336 5.83646 10.9336Z" fill="#3697E5"/>
<path d="M10.5 1.5H4.5C4.10218 1.5 3.72064 1.65804 3.43934 1.93934C3.15804 2.22064 3 2.60218 3 3V15C3 15.3978 3.15804 15.7794 3.43934 16.0607C3.72064 16.342 4.10218 16.5 4.5 16.5H13.5C13.8978 16.5 14.2794 16.342 14.5607 16.0607C14.842 15.7794 15 15.3978 15 15V6L10.5 1.5ZM10.5 6.75H9.75V3L13.5 6.75H10.5Z" fill="#3697E5"/>
<rect x="6" y="8.29297" width="5.45288" height="7.70703" fill="white"/>
<path d="M11.2825 8L12.5 8.95581V15.4298C12.5005 15.5042 12.4854 15.5779 12.4553 15.6468C12.4252 15.7157 12.3808 15.7784 12.3247 15.8314C12.2686 15.8843 12.2018 15.9264 12.1281 15.9554C12.0545 15.9843 11.9754 15.9995 11.8955 16H6.10459C5.94472 15.999 5.7917 15.9395 5.6786 15.8344C5.56549 15.7293 5.50138 15.587 5.5001 15.4383L5.50002 8.56172C5.50002 8.25141 5.77213 8 6.10816 8H11.2825ZM7.22401 13.2972H6.41254V15.1845H11.2826V14.4297L7.22401 14.4291V13.2972ZM8.84755 13.1081C8.7676 13.1081 8.68844 13.1227 8.61459 13.1512C8.54073 13.1796 8.47362 13.2214 8.41709 13.2739C8.36057 13.3265 8.31573 13.3889 8.28513 13.4576C8.25454 13.5263 8.2388 13.6 8.2388 13.6743C8.2388 13.7487 8.25454 13.8223 8.28513 13.891C8.31573 13.9597 8.36057 14.0221 8.41709 14.0747C8.47362 14.1273 8.54073 14.169 8.61459 14.1975C8.68844 14.2259 8.7676 14.2406 8.84755 14.2406C9.009 14.2406 9.16384 14.1809 9.278 14.0747C9.39216 13.9685 9.4563 13.8245 9.4563 13.6743C9.4563 13.5242 9.39216 13.3801 9.278 13.2739C9.16384 13.1677 9.009 13.1081 8.84755 13.1081ZM8.84755 10.0883C8.44392 10.0883 8.05682 10.2374 7.77142 10.5029C7.48601 10.7684 7.32567 11.1285 7.32567 11.5039C7.32567 11.8794 7.48601 12.2394 7.77142 12.5049C8.05682 12.7704 8.44392 12.9195 8.84755 12.9195C9.25117 12.9195 9.63827 12.7704 9.92368 12.5049C10.2091 12.2394 10.3694 11.8794 10.3694 11.5039C10.3694 11.1285 10.2091 10.7684 9.92368 10.5029C9.63827 10.2374 9.25117 10.0883 8.84755 10.0883ZM8.84755 10.8431C9.03596 10.8431 9.21666 10.9127 9.34988 11.0367C9.48311 11.1606 9.55796 11.3287 9.55796 11.5039C9.55796 11.6792 9.48311 11.8472 9.34988 11.9712C9.21666 12.0951 9.03596 12.1647 8.84755 12.1647C8.65913 12.1647 8.47844 12.0951 8.34521 11.9712C8.21198 11.8472 8.13713 11.6792 8.13713 11.5039C8.13713 11.3287 8.21198 11.1606 8.34521 11.0367C8.47844 10.9127 8.65913 10.8431 8.84755 10.8431ZM9.25358 8.38957H8.44151V9.14437H6.41254V9.89974H11.2826V9.14437H9.25297L9.25358 8.38957Z" fill="#3697E5"/>
</svg>
