<svg width="18" height="18" viewBox="0 0 18 18" fill="none" xmlns="http://www.w3.org/2000/svg">
<path d="M10.5 1.5H4.5C4.10218 1.5 3.72064 1.65804 3.43934 1.93934C3.15804 2.22064 3 2.60218 3 3V15C3 15.3978 3.15804 15.7794 3.43934 16.0607C3.72064 16.342 4.10218 16.5 4.5 16.5H13.5C13.8978 16.5 14.2794 16.342 14.5607 16.0607C14.842 15.7794 15 15.3978 15 15V6L10.5 1.5ZM7.4985 11.076H6.67125V13.5315H5.9835V11.076H5.16975V10.5H7.4985V11.076ZM9.54225 13.5315L9.2685 12.9833C9.156 12.7718 9.084 12.6142 8.99925 12.4387H8.9895C8.92725 12.6135 8.85075 12.771 8.7555 12.9833L8.50425 13.5315H7.7205L8.59875 11.9977L7.752 10.5H8.5395L8.805 11.0535C8.89575 11.2373 8.9625 11.3858 9.0345 11.5568H9.04425C9.11625 11.3633 9.17475 11.2282 9.25125 11.0535L9.507 10.5H10.2892L9.435 11.9797L10.3335 13.5315H9.54225ZM12.8302 11.076H12.0023V13.5315H11.3145V11.076H10.5008V10.5H12.8295L12.8302 11.076ZM10.5 6.75H9.75V3L13.5 6.75H10.5Z" fill="#3697E5"/>
<path d="M5 7.48828H8" stroke="white"/>
<path d="M5 5H7" stroke="white"/>
</svg>
