<svg width="18" height="18" viewBox="0 0 18 18" fill="none" xmlns="http://www.w3.org/2000/svg">
<path d="M9.13949 10.9141C8.67674 10.9141 8.40674 11.3543 8.40674 11.9438C8.40674 12.5371 8.68499 12.9563 9.14399 12.9563C9.60674 12.9563 9.87224 12.5153 9.87224 11.9258C9.87224 11.3813 9.61124 10.9141 9.13949 10.9141Z" fill="#3697E5"/>
<path d="M10.5 1.5H4.5C4.10218 1.5 3.72064 1.65804 3.43934 1.93934C3.15804 2.22064 3 2.60218 3 3V15C3 15.3978 3.15804 15.7794 3.43934 16.0607C3.72064 16.342 4.10218 16.5 4.5 16.5H13.5C13.8978 16.5 14.2794 16.342 14.5607 16.0607C14.842 15.7794 15 15.3978 15 15V6L10.5 1.5ZM6.86625 13.0905C6.54675 13.356 6.0615 13.4813 5.46825 13.4813C5.112 13.4813 4.86075 13.4588 4.68975 13.4363V10.458C4.99648 10.4138 5.30612 10.393 5.616 10.3958C6.192 10.3958 6.5655 10.4993 6.85725 10.7198C7.17225 10.9538 7.37025 11.3272 7.37025 11.8612C7.37025 12.4425 7.15875 12.843 6.86625 13.0905ZM9.10875 13.5C8.20875 13.5 7.683 12.8205 7.683 11.9565C7.683 11.0483 8.26275 10.3695 9.15825 10.3695C10.089 10.3695 10.5975 11.0662 10.5975 11.9032C10.5968 12.897 9.99375 13.5 9.10875 13.5ZM12.6 12.9285C12.8062 12.9285 13.0358 12.8828 13.1715 12.8295L13.275 13.3643C13.149 13.4272 12.8655 13.4948 12.4972 13.4948C11.4495 13.4948 10.9095 12.843 10.9095 11.979C10.9095 10.9447 11.6468 10.3695 12.5648 10.3695C12.9202 10.3695 13.1895 10.4415 13.311 10.5045L13.1715 11.049C12.9889 10.9735 12.7931 10.9353 12.5955 10.9365C12.051 10.9365 11.628 11.265 11.628 11.94C11.628 12.5468 11.988 12.9285 12.6 12.9285ZM10.5 6.75H9.75V3L13.5 6.75H10.5Z" fill="#3697E5"/>
<path d="M5.68792 10.9219C5.53567 10.9219 5.43667 10.9354 5.37817 10.9489V12.9326C5.43667 12.9461 5.53117 12.9461 5.61592 12.9461C6.23692 12.9506 6.64117 12.6094 6.64117 11.8849C6.64567 11.2549 6.27742 10.9219 5.68792 10.9219Z" fill="#3697E5"/>
</svg>
