<svg width="16" height="16" viewBox="0 0 16 16" fill="none" xmlns="http://www.w3.org/2000/svg">
<path d="M11.3333 6C11.5222 6 11.6807 5.936 11.8087 5.808C11.9367 5.68 12.0004 5.52178 12 5.33333C12 5.14444 11.936 4.98622 11.808 4.85867C11.68 4.73111 11.5218 4.66711 11.3333 4.66667H4.66667C4.47778 4.66667 4.31956 4.73067 4.192 4.85867C4.06444 4.98667 4.00044 5.14489 4 5.33333C4 5.52222 4.064 5.68067 4.192 5.80867C4.32 5.93667 4.47822 6.00044 4.66667 6H11.3333ZM12 15.3333C11.0778 15.3333 10.2918 15.0082 9.642 14.358C8.99222 13.7078 8.66711 12.9218 8.66667 12C8.66667 11.0778 8.99178 10.2918 9.642 9.642C10.2922 8.99222 11.0782 8.66711 12 8.66667C12.9222 8.66667 13.7084 8.99178 14.3587 9.642C15.0089 10.2922 15.3338 11.0782 15.3333 12C15.3333 12.9222 15.0082 13.7084 14.358 14.3587C13.7078 15.0089 12.9218 15.3338 12 15.3333ZM3.33333 2H12.6667C13.0333 2 13.3473 2.13067 13.6087 2.392C13.87 2.65333 14.0004 2.96711 14 3.33333V7.78333C13.6889 7.62778 13.3638 7.51378 13.0247 7.44133C12.6856 7.36889 12.344 7.33289 12 7.33333H4.66667C4.47778 7.33333 4.31956 7.39733 4.192 7.52533C4.06444 7.65333 4.00044 7.81156 4 8C4 8.18889 4.064 8.34733 4.192 8.47533C4.32 8.60333 4.47822 8.66711 4.66667 8.66667H8.73333C8.54445 8.85556 8.36956 9.06111 8.20867 9.28333C8.04778 9.50556 7.906 9.74445 7.78333 10H4.66667C4.47778 10 4.31956 10.064 4.192 10.192C4.06444 10.32 4.00044 10.4782 4 10.6667C4 10.8556 4.064 11.014 4.192 11.142C4.32 11.27 4.47822 11.3338 4.66667 11.3333H7.38333C7.36111 11.4444 7.34733 11.5529 7.342 11.6587C7.33667 11.7644 7.33378 11.8782 7.33333 12C7.33333 12.4667 7.39733 12.914 7.52533 13.342C7.65333 13.77 7.84489 14.1782 8.1 14.5667C8.04444 14.5778 7.98622 14.5693 7.92533 14.5413C7.86444 14.5133 7.81156 14.4773 7.76667 14.4333L7.23333 13.9C7.16667 13.8333 7.08889 13.8 7 13.8C6.91111 13.8 6.83333 13.8333 6.76667 13.9L6.23333 14.4333C6.16667 14.5 6.08889 14.5333 6 14.5333C5.91111 14.5333 5.83333 14.5 5.76667 14.4333L5.23333 13.9C5.16667 13.8333 5.08889 13.8 5 13.8C4.91111 13.8 4.83333 13.8333 4.76667 13.9L4.23333 14.4333C4.16667 14.5 4.08889 14.5333 4 14.5333C3.91111 14.5333 3.83333 14.5 3.76667 14.4333L3.23333 13.9C3.16667 13.8333 3.08889 13.8 3 13.8C2.91111 13.8 2.83333 13.8333 2.76667 13.9L2.23333 14.4333L2 14.5833V3.33333C2 2.96667 2.13067 2.65289 2.392 2.392C2.65333 2.13111 2.96711 2.00044 3.33333 2Z" fill="#E34C4C"/>
<path d="M13.2539 10.8164L10.7487 13.3216" stroke="white" stroke-linecap="round"/>
<path d="M10.7485 10.8164L13.2537 13.3216" stroke="white" stroke-linecap="round"/>
</svg>
