<svg width="16" height="16" viewBox="0 0 16 16" fill="none" xmlns="http://www.w3.org/2000/svg">
<g clip-path="url(#clip0_672_2084)">
<path d="M2.66683 14H12.6668C13.0205 14 13.3596 13.8595 13.6096 13.6095C13.8597 13.3594 14.0002 13.0203 14.0002 12.6667V8.66667H11.3335V10L8.66683 8L11.3335 6V7.33333H14.0002V3.33333C14.0002 2.97971 13.8597 2.64057 13.6096 2.39052C13.3596 2.14048 13.0205 2 12.6668 2H2.66683C2.31321 2 1.97407 2.14048 1.72402 2.39052C1.47397 2.64057 1.3335 2.97971 1.3335 3.33333V12.6667C1.3335 13.0203 1.47397 13.3594 1.72402 13.6095C1.97407 13.8595 2.31321 14 2.66683 14ZM2.66683 10H5.3335V11.3333H2.66683V10ZM2.66683 7.33333H7.3335V8.66667H2.66683V7.33333ZM2.66683 4.66667H7.3335V6H2.66683V4.66667ZM14.0002 7.33333H16.0002V8.66667H14.0002V7.33333Z" fill="#FFA841"/>
</g>
<defs>
<clipPath id="clip0_672_2084">
<rect width="16" height="16" fill="white"/>
</clipPath>
</defs>
</svg>
