<svg width="17" height="16" viewBox="0 0 17 16" fill="none" xmlns="http://www.w3.org/2000/svg">
<g clip-path="url(#clip0_672_2033)">
<circle cx="8.5" cy="8" r="7.5" fill="white" stroke="white"/>
<path d="M13 6.05078V10.1906C13 10.5253 12.8685 10.8473 12.6322 11.0909C12.396 11.3344 12.073 11.4809 11.7292 11.5006L11.65 11.5028H5.35C5.00566 11.5028 4.67432 11.3749 4.42378 11.1453C4.17325 10.9157 4.02245 10.6017 4.00225 10.2676L4 10.1906V6.05078L8.25025 8.80498L8.30245 8.83385C8.36397 8.86306 8.43153 8.87825 8.5 8.87825C8.56847 8.87825 8.63603 8.86306 8.69755 8.83385L8.74975 8.80498L13 6.05078Z" fill="#52C0FE"/>
<path d="M11.6499 4.5C12.1359 4.5 12.5621 4.74931 12.7997 5.12415L8.49995 7.91027L4.2002 5.12415C4.31302 4.94603 4.46804 4.79672 4.65231 4.68868C4.83659 4.58064 5.04477 4.517 5.2595 4.50306L5.34995 4.5H11.6499Z" fill="#52C0FE"/>
</g>
<defs>
<clipPath id="clip0_672_2033">
<rect width="16" height="16" fill="white" transform="translate(0.5)"/>
</clipPath>
</defs>
</svg>
