<svg width="16" height="16" viewBox="0 0 16 16" fill="none" xmlns="http://www.w3.org/2000/svg">
<g clip-path="url(#clip0_672_2023)">
<circle cx="8" cy="8" r="7.5" fill="white" stroke="white"/>
<path d="M4.31818 12H10.4545C10.6715 12 10.8796 11.9063 11.0331 11.7397C11.1865 11.573 11.2727 11.3469 11.2727 11.1111V8.44444H9.63636V9.33333L8 8L9.63636 6.66667V7.55556H11.2727V4.88889C11.2727 4.65314 11.1865 4.42705 11.0331 4.26035C10.8796 4.09365 10.6715 4 10.4545 4H4.31818C4.10119 4 3.89308 4.09365 3.73964 4.26035C3.5862 4.42705 3.5 4.65314 3.5 4.88889V11.1111C3.5 11.3469 3.5862 11.573 3.73964 11.7397C3.89308 11.9063 4.10119 12 4.31818 12ZM4.31818 9.33333H5.95455V10.2222H4.31818V9.33333ZM4.31818 7.55556H7.18182V8.44444H4.31818V7.55556ZM4.31818 5.77778H7.18182V6.66667H4.31818V5.77778ZM11.2727 7.55556H12.5V8.44444H11.2727V7.55556Z" fill="#FFA841"/>
</g>
<defs>
<clipPath id="clip0_672_2023">
<rect width="16" height="16" fill="white"/>
</clipPath>
</defs>
</svg>
