<svg width="16" height="16" viewBox="0 0 16 16" fill="none" xmlns="http://www.w3.org/2000/svg">
<g clip-path="url(#clip0_672_2091)">
<path d="M14.6668 5.02344V11.3334C14.6669 11.8436 14.4719 12.3344 14.122 12.7056C13.772 13.0768 13.2934 13.3002 12.7842 13.3301L12.6668 13.3334H3.3335C2.82336 13.3335 2.33249 13.1386 1.96132 12.7886C1.59016 12.4386 1.36676 11.96 1.33683 11.4508L1.3335 11.3334V5.02344L7.63016 9.22144L7.7075 9.26544C7.79863 9.30997 7.89873 9.33311 8.00016 9.33311C8.1016 9.33311 8.20169 9.30997 8.29283 9.26544L8.37016 9.22144L14.6668 5.02344Z" fill="#52C0FE"/>
<path d="M12.6666 2.66797C13.3866 2.66797 14.0179 3.04797 14.3699 3.6193L7.99988 7.86597L1.62988 3.6193C1.79704 3.34781 2.02669 3.12024 2.29969 2.95556C2.57268 2.79088 2.8811 2.69387 3.19922 2.67264L3.33322 2.66797H12.6666Z" fill="#52C0FE"/>
</g>
<defs>
<clipPath id="clip0_672_2091">
<rect width="16" height="16" fill="white"/>
</clipPath>
</defs>
</svg>
