<svg width="16" height="16" viewBox="0 0 16 16" fill="none" xmlns="http://www.w3.org/2000/svg">
<g clip-path="url(#clip0_669_2040)">
<circle cx="8" cy="8" r="8" fill="white"/>
<path d="M10.4237 10.8062L10.2325 10.615C10.165 10.5475 10.0844 10.5138 9.99085 10.5138C9.89725 10.5138 9.81655 10.5475 9.74875 10.615C9.68125 10.6825 9.6475 10.7613 9.6475 10.8513C9.6475 10.9412 9.68125 11.02 9.74875 11.0875L10.1875 11.5262C10.255 11.5938 10.3337 11.6275 10.4237 11.6275C10.5137 11.6275 10.5925 11.5938 10.66 11.5262L11.7512 10.4575C11.8187 10.39 11.8525 10.3093 11.8525 10.2154C11.8525 10.1215 11.8187 10.0409 11.7512 9.97375C11.6838 9.90625 11.603 9.8725 11.5092 9.8725C11.4152 9.8725 11.3347 9.90625 11.2675 9.97375L10.4237 10.8062ZM10.3 6.7C10.4275 6.7 10.5344 6.6568 10.6208 6.5704C10.7072 6.484 10.7503 6.3772 10.75 6.25C10.75 6.1225 10.7068 6.0157 10.6204 5.9296C10.534 5.8435 10.4272 5.8003 10.3 5.8H5.8C5.6725 5.8 5.5657 5.8432 5.4796 5.9296C5.3935 6.016 5.3503 6.1228 5.35 6.25C5.35 6.3775 5.3932 6.48445 5.4796 6.57085C5.566 6.65725 5.6728 6.7003 5.8 6.7H10.3ZM10.75 13C10.1275 13 9.59695 12.7806 9.15835 12.3417C8.71975 11.9028 8.5003 11.3722 8.5 10.75C8.5 10.1275 8.71945 9.59695 9.15835 9.15835C9.59725 8.71975 10.1278 8.5003 10.75 8.5C11.3725 8.5 11.9032 8.71945 12.3421 9.15835C12.781 9.59725 13.0003 10.1278 13 10.75C13 11.3725 12.7806 11.9032 12.3417 12.3421C11.9028 12.781 11.3722 13.0003 10.75 13ZM4.9 4H11.2C11.4475 4 11.6595 4.0882 11.8358 4.2646C12.0122 4.441 12.1003 4.6528 12.1 4.9V7.90375C11.89 7.79875 11.6705 7.7218 11.4416 7.6729C11.2127 7.624 10.9822 7.5997 10.75 7.6H5.8C5.6725 7.6 5.5657 7.6432 5.4796 7.7296C5.3935 7.816 5.3503 7.9228 5.35 8.05C5.35 8.1775 5.3932 8.28445 5.4796 8.37085C5.566 8.45725 5.6728 8.5003 5.8 8.5H8.545C8.4175 8.6275 8.29945 8.76625 8.19085 8.91625C8.08225 9.06625 7.98655 9.2275 7.90375 9.4H5.8C5.6725 9.4 5.5657 9.4432 5.4796 9.5296C5.3935 9.616 5.3503 9.7228 5.35 9.85C5.35 9.9775 5.3932 10.0844 5.4796 10.1708C5.566 10.2572 5.6728 10.3003 5.8 10.3H7.63375C7.61875 10.375 7.60945 10.4482 7.60585 10.5196C7.60225 10.591 7.6003 10.6678 7.6 10.75C7.6 11.065 7.6432 11.367 7.7296 11.6558C7.816 11.9447 7.9453 12.2203 8.1175 12.4825C8.08 12.49 8.0407 12.4843 7.9996 12.4654C7.9585 12.4465 7.9228 12.4222 7.8925 12.3925L7.5325 12.0325C7.4875 11.9875 7.435 11.965 7.375 11.965C7.315 11.965 7.2625 11.9875 7.2175 12.0325L6.8575 12.3925C6.8125 12.4375 6.76 12.46 6.7 12.46C6.64 12.46 6.5875 12.4375 6.5425 12.3925L6.1825 12.0325C6.1375 11.9875 6.085 11.965 6.025 11.965C5.965 11.965 5.9125 11.9875 5.8675 12.0325L5.5075 12.3925C5.4625 12.4375 5.41 12.46 5.35 12.46C5.29 12.46 5.2375 12.4375 5.1925 12.3925L4.8325 12.0325C4.7875 11.9875 4.735 11.965 4.675 11.965C4.615 11.965 4.5625 11.9875 4.5175 12.0325L4.1575 12.3925L4 12.4937V4.9C4 4.6525 4.0882 4.4407 4.2646 4.2646C4.441 4.0885 4.6528 4.0003 4.9 4Z" fill="#3ABCB3"/>
</g>
<defs>
<clipPath id="clip0_669_2040">
<rect width="16" height="16" fill="white"/>
</clipPath>
</defs>
</svg>
