<svg width="17" height="16" viewBox="0 0 17 16" fill="none" xmlns="http://www.w3.org/2000/svg">
<g clip-path="url(#clip0_672_2026)">
<circle cx="8.5" cy="8" r="7.5" fill="white" stroke="white"/>
<path d="M10.4533 6.2C10.5808 6.2 10.6878 6.1568 10.7742 6.0704C10.8606 5.984 10.9036 5.8772 10.9033 5.75C10.9033 5.6225 10.8601 5.5157 10.7737 5.4296C10.6873 5.3435 10.5805 5.3003 10.4533 5.3H5.95332C5.82582 5.3 5.71902 5.3432 5.63292 5.4296C5.54682 5.516 5.50362 5.6228 5.50332 5.75C5.50332 5.8775 5.54652 5.98445 5.63292 6.07085C5.71932 6.15725 5.82612 6.2003 5.95332 6.2H10.4533ZM10.9033 12.5C10.2808 12.5 9.75027 12.2805 9.31167 11.8416C8.87307 11.4027 8.65362 10.8722 8.65332 10.25C8.65332 9.6275 8.87277 9.09695 9.31167 8.65835C9.75057 8.21975 10.2811 8.0003 10.9033 8C11.5258 8 12.0565 8.21945 12.4954 8.65835C12.9343 9.09725 13.1536 9.6278 13.1533 10.25C13.1533 10.8725 12.9339 11.4032 12.495 11.8421C12.0561 12.281 11.5255 12.5003 10.9033 12.5ZM5.05332 3.5H11.3533C11.6008 3.5 11.8128 3.5882 11.9892 3.7646C12.1656 3.941 12.2536 4.1528 12.2533 4.4V7.40375C12.0433 7.29875 11.8239 7.2218 11.595 7.1729C11.3661 7.124 11.1355 7.0997 10.9033 7.1H5.95332C5.82582 7.1 5.71902 7.1432 5.63292 7.2296C5.54682 7.316 5.50362 7.4228 5.50332 7.55C5.50332 7.6775 5.54652 7.78445 5.63292 7.87085C5.71932 7.95725 5.82612 8.0003 5.95332 8H8.69832C8.57082 8.1275 8.45277 8.26625 8.34417 8.41625C8.23557 8.56625 8.13987 8.7275 8.05707 8.9H5.95332C5.82582 8.9 5.71902 8.9432 5.63292 9.0296C5.54682 9.116 5.50362 9.2228 5.50332 9.35C5.50332 9.4775 5.54652 9.58445 5.63292 9.67085C5.71932 9.75725 5.82612 9.8003 5.95332 9.8H7.78707C7.77207 9.875 7.76277 9.9482 7.75917 10.0196C7.75557 10.091 7.75362 10.1678 7.75332 10.25C7.75332 10.565 7.79652 10.867 7.88292 11.1559C7.96932 11.4448 8.09862 11.7203 8.27082 11.9825C8.23332 11.99 8.19402 11.9843 8.15292 11.9654C8.11182 11.9465 8.07612 11.9222 8.04582 11.8925L7.68582 11.5325C7.64082 11.4875 7.58832 11.465 7.52832 11.465C7.46832 11.465 7.41582 11.4875 7.37082 11.5325L7.01082 11.8925C6.96582 11.9375 6.91332 11.96 6.85332 11.96C6.79332 11.96 6.74082 11.9375 6.69582 11.8925L6.33582 11.5325C6.29082 11.4875 6.23832 11.465 6.17832 11.465C6.11832 11.465 6.06582 11.4875 6.02082 11.5325L5.66082 11.8925C5.61582 11.9375 5.56332 11.96 5.50332 11.96C5.44332 11.96 5.39082 11.9375 5.34582 11.8925L4.98582 11.5325C4.94082 11.4875 4.88832 11.465 4.82832 11.465C4.76832 11.465 4.71582 11.4875 4.67082 11.5325L4.31082 11.8925L4.15332 11.9937V4.4C4.15332 4.1525 4.24152 3.9407 4.41792 3.7646C4.59432 3.5885 4.80612 3.5003 5.05332 3.5Z" fill="#E34C4C"/>
<path d="M11.7495 9.44531L10.0585 11.1363" stroke="white" stroke-linecap="round"/>
<path d="M10.0581 9.44531L11.7491 11.1363" stroke="white" stroke-linecap="round"/>
</g>
<defs>
<clipPath id="clip0_672_2026">
<rect width="16" height="16" fill="white" transform="translate(0.5)"/>
</clipPath>
</defs>
</svg>
