<svg width="41" height="20" viewBox="0 0 41 20" fill="none" xmlns="http://www.w3.org/2000/svg">
<rect x="0.117676" width="40" height="20" rx="10" fill="#FFEDE8"/>
<path d="M16.4116 5.89062V13H15.4644L11.8853 7.5166V13H10.9429V5.89062H11.8853L15.479 11.3887V5.89062H16.4116ZM20.1372 13.0977C19.7694 13.0977 19.4357 13.0358 19.1362 12.9121C18.84 12.7852 18.5845 12.6077 18.3696 12.3799C18.158 12.152 17.9953 11.8818 17.8813 11.5693C17.7674 11.2568 17.7104 10.915 17.7104 10.5439V10.3389C17.7104 9.90918 17.7739 9.52669 17.9009 9.19141C18.0278 8.85286 18.2004 8.56641 18.4185 8.33203C18.6366 8.09766 18.884 7.92025 19.1606 7.7998C19.4373 7.67936 19.7238 7.61914 20.02 7.61914C20.3976 7.61914 20.7231 7.68424 20.9966 7.81445C21.2733 7.94466 21.4995 8.12695 21.6753 8.36133C21.8511 8.59245 21.9813 8.86589 22.0659 9.18164C22.1506 9.49414 22.1929 9.83594 22.1929 10.207V10.6123H18.2476V9.875H21.2896V9.80664C21.2765 9.57227 21.2277 9.3444 21.1431 9.12305C21.0617 8.90169 20.9315 8.7194 20.7524 8.57617C20.5734 8.43294 20.3293 8.36133 20.02 8.36133C19.8149 8.36133 19.6261 8.40527 19.4536 8.49316C19.2811 8.5778 19.133 8.70475 19.0093 8.87402C18.8856 9.04329 18.7896 9.25 18.7212 9.49414C18.6528 9.73828 18.6187 10.0199 18.6187 10.3389V10.5439C18.6187 10.7946 18.6528 11.0306 18.7212 11.252C18.7928 11.4701 18.8953 11.6621 19.0288 11.8281C19.1655 11.9941 19.3299 12.1243 19.522 12.2188C19.7173 12.3132 19.9386 12.3604 20.186 12.3604C20.505 12.3604 20.7752 12.2952 20.9966 12.165C21.2179 12.0348 21.4116 11.8607 21.5776 11.6426L22.1245 12.0771C22.0106 12.2497 21.8657 12.4141 21.6899 12.5703C21.5142 12.7266 21.2977 12.8535 21.0405 12.9512C20.7866 13.0488 20.4855 13.0977 20.1372 13.0977ZM24.5854 12.0625L25.9429 7.7168H26.5386L26.4214 8.58105L25.0396 13H24.4585L24.5854 12.0625ZM23.6724 7.7168L24.8296 12.1113L24.9126 13H24.3022L22.769 7.7168H23.6724ZM27.8374 12.0771L28.9409 7.7168H29.8394L28.3062 13H27.7007L27.8374 12.0771ZM26.6704 7.7168L27.9985 11.9893L28.1499 13H27.5737L26.1528 8.57129L26.0356 7.7168H26.6704Z" fill="#E34C4C"/>
</svg>
