<svg width="20" height="20" viewBox="0 0 20 20" fill="none" xmlns="http://www.w3.org/2000/svg">
<g clip-path="url(#clip0_652_3129)">
<circle cx="10" cy="10" r="10" fill="#DBE4F2"/>
<path d="M9.99982 4.6875C10.6535 4.6873 11.2899 4.89775 11.8159 5.28795C12.3418 5.67816 12.7294 6.22757 12.9219 6.85556C13.1144 7.48354 13.1016 8.15702 12.8853 8.77714C12.6691 9.39727 12.2608 9.93137 11.7205 10.3011C12.6584 10.6469 13.4719 11.2671 14.0563 12.0817C14.6407 12.8963 14.9691 13.8681 14.9995 14.8721C15.0023 14.9278 14.994 14.9835 14.9751 15.036C14.9563 15.0885 14.9272 15.1366 14.8895 15.1776C14.8519 15.2186 14.8065 15.2517 14.756 15.2748C14.7055 15.2979 14.6509 15.3107 14.5954 15.3123C14.5399 15.314 14.4847 15.3044 14.4329 15.2843C14.3812 15.2642 14.3339 15.2339 14.2939 15.1952C14.254 15.1565 14.2221 15.1101 14.2002 15.0588C14.1783 15.0076 14.1668 14.9524 14.1664 14.8966C14.1333 13.8079 13.6798 12.7749 12.9021 12.0166C12.1244 11.2583 11.0835 10.8342 10.0001 10.8342C8.91667 10.8342 7.87581 11.2583 7.09809 12.0166C6.32038 12.7749 5.86693 13.8079 5.83383 14.8966C5.83051 15.0078 5.78342 15.113 5.7029 15.1893C5.62239 15.2655 5.51505 15.3065 5.4045 15.3031C5.29396 15.2998 5.18925 15.2524 5.11343 15.1715C5.03761 15.0905 4.99687 14.9826 5.00019 14.8715C5.03061 13.8677 5.35915 12.896 5.94352 12.0815C6.52788 11.267 7.34133 10.6469 8.27918 10.3011C7.73881 9.93137 7.33054 9.39727 7.11431 8.77714C6.89807 8.15702 6.88526 7.48354 7.07774 6.85556C7.27023 6.22757 7.65788 5.67816 8.18379 5.28795C8.70971 4.89775 9.34619 4.6873 9.99982 4.6875ZM7.77677 7.76052C7.77677 8.35326 8.01099 8.92172 8.42789 9.34085C8.84479 9.75998 9.41023 9.99545 9.99982 9.99545C10.5894 9.99545 11.1549 9.75998 11.5718 9.34085C11.9887 8.92172 12.2229 8.35326 12.2229 7.76052C12.2229 7.16778 11.9887 6.59932 11.5718 6.18019C11.1549 5.76106 10.5894 5.5256 9.99982 5.5256C9.41023 5.5256 8.84479 5.76106 8.42789 6.18019C8.01099 6.59932 7.77677 7.16778 7.77677 7.76052Z" fill="white"/>
</g>
<defs>
<clipPath id="clip0_652_3129">
<rect width="20" height="20" fill="white"/>
</clipPath>
</defs>
</svg>
