<svg width="16" height="16" viewBox="0 0 16 16" fill="none" xmlns="http://www.w3.org/2000/svg">
<g clip-path="url(#clip0_863_3049)">
<circle cx="8" cy="8" r="8" fill="#3ABCB3"/>
<path d="M11.101 4.72317C11.2565 4.57845 11.4635 4.49844 11.6782 4.50002C11.893 4.50161 12.0987 4.58467 12.2519 4.73169C12.4052 4.8787 12.494 5.07816 12.4997 5.28798C12.5054 5.4978 12.4274 5.70157 12.2823 5.8563L7.87721 11.2413C7.80146 11.3211 7.71004 11.3851 7.60841 11.4295C7.50678 11.4739 7.39703 11.4978 7.28572 11.4999C7.17441 11.5019 7.06383 11.4819 6.96059 11.4412C6.85734 11.4005 6.76356 11.3399 6.68484 11.2629L3.76354 8.40744C3.68219 8.33334 3.61694 8.24398 3.57168 8.1447C3.52643 8.04542 3.50209 7.93824 3.50013 7.82957C3.49817 7.72089 3.51862 7.61295 3.56027 7.51217C3.60191 7.41138 3.6639 7.31984 3.74253 7.24298C3.82115 7.16612 3.91481 7.10553 4.01792 7.06483C4.12102 7.02412 4.23146 7.00413 4.34264 7.00604C4.45382 7.00796 4.56347 7.03175 4.66504 7.07599C4.76661 7.12022 4.85802 7.184 4.93383 7.26352L7.2457 9.52221L11.08 4.74692C11.0869 4.73861 11.0932 4.73068 11.101 4.72317Z" fill="white"/>
</g>
<defs>
<clipPath id="clip0_863_3049">
<rect width="16" height="16" fill="white"/>
</clipPath>
</defs>
</svg>
