<svg width="16" height="16" viewBox="0 0 16 16" fill="none" xmlns="http://www.w3.org/2000/svg">
<g clip-path="url(#clip0_856_3534)">
<path d="M14.6663 5.02344V11.3334C14.6664 11.8436 14.4715 12.3344 14.1215 12.7056C13.7715 13.0768 13.2929 13.3002 12.7837 13.3301L12.6663 13.3334H3.33301C2.82287 13.3335 2.332 13.1386 1.96083 12.7886C1.58967 12.4386 1.36627 11.96 1.33634 11.4508L1.33301 11.3334V5.02344L7.62967 9.22144L7.70701 9.26544C7.79814 9.30997 7.89824 9.33311 7.99967 9.33311C8.10111 9.33311 8.2012 9.30997 8.29234 9.26544L8.36967 9.22144L14.6663 5.02344Z" fill="#CFD8E7"/>
<path d="M12.6666 2.66797C13.3866 2.66797 14.0179 3.04797 14.3699 3.6193L7.99988 7.86597L1.62988 3.6193C1.79704 3.34781 2.02669 3.12024 2.29969 2.95556C2.57268 2.79088 2.8811 2.69387 3.19922 2.67264L3.33322 2.66797H12.6666Z" fill="#CFD8E7"/>
</g>
<defs>
<clipPath id="clip0_856_3534">
<rect width="16" height="16" fill="white"/>
</clipPath>
</defs>
</svg>
