<svg width="28" height="28" viewBox="0 0 28 28" fill="none" xmlns="http://www.w3.org/2000/svg">
<rect width="28" height="28" rx="8" fill="#50AB78"/>
<path d="M18.2923 12.7551L20.332 10.8359L20.3439 10.824C20.764 10.4039 21 9.83414 21 9.24004C21 8.64595 20.764 8.07618 20.3439 7.65609C19.9238 7.236 19.354 7 18.7599 7C18.1658 7 17.596 7.236 17.1759 7.65609C17.1759 7.66029 17.1682 7.66379 17.164 7.66799L15.2447 9.7076L9.43514 7.5938C9.33501 7.55738 9.22657 7.55029 9.12254 7.57335C9.01852 7.59641 8.92324 7.64867 8.84788 7.72399L7.16799 9.40383C7.10946 9.46241 7.06464 9.53325 7.03678 9.61124C7.00892 9.68922 6.9987 9.77242 7.00687 9.85483C7.01504 9.93725 7.04139 10.0168 7.08401 10.0878C7.12664 10.1588 7.18449 10.2195 7.25339 10.2654L11.7254 13.2465L10.6881 14.2803H9.23985C9.09154 14.2803 8.94931 14.3392 8.84438 14.444L7.16449 16.1239C7.09898 16.1892 7.05068 16.2698 7.02392 16.3584C6.99716 16.447 6.99278 16.5408 7.01115 16.6315C7.02952 16.7222 7.07009 16.8069 7.12922 16.8781C7.18835 16.9493 7.2642 17.0047 7.34998 17.0394L9.9272 18.0704L10.9561 20.6427L10.9603 20.6539C10.9959 20.74 11.0525 20.8159 11.1248 20.8747C11.1972 20.9335 11.2831 20.9732 11.3747 20.9904C11.4664 21.0076 11.5608 21.0016 11.6496 20.973C11.7383 20.9444 11.8185 20.8942 11.8829 20.8267L13.5537 19.1553C13.6059 19.1035 13.6475 19.0419 13.676 18.9741C13.7044 18.9062 13.7192 18.8334 13.7195 18.7598V17.3117L14.7527 16.2786L17.7338 20.7504C17.7797 20.8193 17.8404 20.8772 17.9114 20.9198C17.9824 20.9624 18.062 20.9888 18.1444 20.997C18.2268 21.0051 18.31 20.9949 18.388 20.967C18.466 20.9392 18.5368 20.8944 18.5954 20.8358L20.2753 19.156C20.3506 19.0806 20.4029 18.9854 20.4259 18.8813C20.449 18.7773 20.4419 18.6689 20.4055 18.5688L18.2923 12.7551ZM18.2874 19.5606L15.3063 15.0894C15.2606 15.02 15.2001 14.9616 15.129 14.9185C15.0579 14.8754 14.9781 14.8486 14.8955 14.8402H14.8402C14.7666 14.8402 14.6937 14.8548 14.6257 14.883C14.5577 14.9112 14.496 14.9526 14.444 15.0047L12.7641 16.6845C12.659 16.7893 12.5999 16.9316 12.5996 17.08V18.5282L11.6848 19.443L10.8798 17.43C10.8517 17.3601 10.8097 17.2966 10.7564 17.2433C10.7031 17.19 10.6396 17.1481 10.5698 17.1199L8.5581 16.315L9.47224 15.4002H10.9197C10.9933 15.4002 11.0661 15.3858 11.1341 15.3577C11.2021 15.3296 11.2639 15.2884 11.3159 15.2364L12.9958 13.5565C13.0545 13.4979 13.0994 13.4271 13.1273 13.349C13.1553 13.2709 13.1655 13.1877 13.1573 13.1051C13.1492 13.0226 13.1228 12.943 13.0801 12.8719C13.0374 12.8008 12.9794 12.7402 12.9104 12.6942L8.43911 9.7125L9.38404 8.76829L15.209 10.8863C15.3117 10.924 15.4231 10.9308 15.5296 10.906C15.636 10.8811 15.7329 10.8256 15.8082 10.7463L17.9739 8.44282C18.1849 8.23791 18.4682 8.12429 18.7624 8.1265C19.0565 8.12872 19.338 8.24659 19.546 8.45465C19.754 8.66272 19.8717 8.94425 19.8738 9.23843C19.8759 9.5326 19.7621 9.81578 19.5571 10.0268L17.2564 12.1917C17.1771 12.267 17.1216 12.3638 17.0967 12.4703C17.0719 12.5768 17.0787 12.6882 17.1164 12.7908L19.2345 18.6156L18.2874 19.5606Z" fill="white"/>
</svg>
