<svg width="17" height="16" viewBox="0 0 17 16" fill="none" xmlns="http://www.w3.org/2000/svg">
<g clip-path="url(#clip0_220_71)">
<path d="M0.966553 15.1429C0.966553 15.3702 1.05686 15.5882 1.2176 15.7489C1.37835 15.9097 1.59637 16 1.8237 16H16.1094C16.3367 16 16.5548 15.9097 16.7155 15.7489C16.8762 15.5882 16.9666 15.3702 16.9666 15.1429V5.14286H0.966553V15.1429ZM12.3951 6.42857C12.3951 6.39068 12.4102 6.35435 12.437 6.32756C12.4638 6.30077 12.5001 6.28571 12.538 6.28571H13.9666C14.0044 6.28571 14.0408 6.30077 14.0676 6.32756C14.0944 6.35435 14.1094 6.39068 14.1094 6.42857V7.85714C14.1094 7.89503 14.0944 7.93137 14.0676 7.95816C14.0408 7.98495 14.0044 8 13.9666 8H12.538C12.5001 8 12.4638 7.98495 12.437 7.95816C12.4102 7.93137 12.3951 7.89503 12.3951 7.85714V6.42857ZM12.3951 9.28572C12.3951 9.24783 12.4102 9.21149 12.437 9.1847C12.4638 9.15791 12.5001 9.14286 12.538 9.14286H13.9666C14.0044 9.14286 14.0408 9.15791 14.0676 9.1847C14.0944 9.21149 14.1094 9.24783 14.1094 9.28572V10.7143C14.1094 10.7522 14.0944 10.7885 14.0676 10.8153C14.0408 10.8421 14.0044 10.8571 13.9666 10.8571H12.538C12.5001 10.8571 12.4638 10.8421 12.437 10.8153C12.4102 10.7885 12.3951 10.7522 12.3951 10.7143V9.28572ZM9.53798 6.42857C9.53798 6.39068 9.55303 6.35435 9.57982 6.32756C9.60662 6.30077 9.64295 6.28571 9.68084 6.28571H11.1094C11.1473 6.28571 11.1836 6.30077 11.2104 6.32756C11.2372 6.35435 11.2523 6.39068 11.2523 6.42857V7.85714C11.2523 7.89503 11.2372 7.93137 11.2104 7.95816C11.1836 7.98495 11.1473 8 11.1094 8H9.68084C9.64295 8 9.60662 7.98495 9.57982 7.95816C9.55303 7.93137 9.53798 7.89503 9.53798 7.85714V6.42857ZM9.53798 9.28572C9.53798 9.24783 9.55303 9.21149 9.57982 9.1847C9.60662 9.15791 9.64295 9.14286 9.68084 9.14286H11.1094C11.1473 9.14286 11.1836 9.15791 11.2104 9.1847C11.2372 9.21149 11.2523 9.24783 11.2523 9.28572V10.7143C11.2523 10.7522 11.2372 10.7885 11.2104 10.8153C11.1836 10.8421 11.1473 10.8571 11.1094 10.8571H9.68084C9.64295 10.8571 9.60662 10.8421 9.57982 10.8153C9.55303 10.7885 9.53798 10.7522 9.53798 10.7143V9.28572ZM9.53798 12.1429C9.53798 12.105 9.55303 12.0686 9.57982 12.0418C9.60662 12.0151 9.64295 12 9.68084 12H11.1094C11.1473 12 11.1836 12.0151 11.2104 12.0418C11.2372 12.0686 11.2523 12.105 11.2523 12.1429V13.5714C11.2523 13.6093 11.2372 13.6457 11.2104 13.6724C11.1836 13.6992 11.1473 13.7143 11.1094 13.7143H9.68084C9.64295 13.7143 9.60662 13.6992 9.57982 13.6724C9.55303 13.6457 9.53798 13.6093 9.53798 13.5714V12.1429ZM6.68084 9.28572C6.68084 9.24783 6.69589 9.21149 6.72268 9.1847C6.74947 9.15791 6.78581 9.14286 6.8237 9.14286H8.25227C8.29016 9.14286 8.32649 9.15791 8.35328 9.1847C8.38007 9.21149 8.39512 9.24783 8.39512 9.28572V10.7143C8.39512 10.7522 8.38007 10.7885 8.35328 10.8153C8.32649 10.8421 8.29016 10.8571 8.25227 10.8571H6.8237C6.78581 10.8571 6.74947 10.8421 6.72268 10.8153C6.69589 10.7885 6.68084 10.7522 6.68084 10.7143V9.28572ZM6.68084 12.1429C6.68084 12.105 6.69589 12.0686 6.72268 12.0418C6.74947 12.0151 6.78581 12 6.8237 12H8.25227C8.29016 12 8.32649 12.0151 8.35328 12.0418C8.38007 12.0686 8.39512 12.105 8.39512 12.1429V13.5714C8.39512 13.6093 8.38007 13.6457 8.35328 13.6724C8.32649 13.6992 8.29016 13.7143 8.25227 13.7143H6.8237C6.78581 13.7143 6.74947 13.6992 6.72268 13.6724C6.69589 13.6457 6.68084 13.6093 6.68084 13.5714V12.1429ZM3.8237 9.28572C3.8237 9.24783 3.83875 9.21149 3.86554 9.1847C3.89233 9.15791 3.92866 9.14286 3.96655 9.14286H5.39512C5.43301 9.14286 5.46935 9.15791 5.49614 9.1847C5.52293 9.21149 5.53798 9.24783 5.53798 9.28572V10.7143C5.53798 10.7522 5.52293 10.7885 5.49614 10.8153C5.46935 10.8421 5.43301 10.8571 5.39512 10.8571H3.96655C3.92866 10.8571 3.89233 10.8421 3.86554 10.8153C3.83875 10.7885 3.8237 10.7522 3.8237 10.7143V9.28572ZM3.8237 12.1429C3.8237 12.105 3.83875 12.0686 3.86554 12.0418C3.89233 12.0151 3.92866 12 3.96655 12H5.39512C5.43301 12 5.46935 12.0151 5.49614 12.0418C5.52293 12.0686 5.53798 12.105 5.53798 12.1429V13.5714C5.53798 13.6093 5.52293 13.6457 5.49614 13.6724C5.46935 13.6992 5.43301 13.7143 5.39512 13.7143H3.96655C3.92866 13.7143 3.89233 13.6992 3.86554 13.6724C3.83875 13.6457 3.8237 13.6093 3.8237 13.5714V12.1429Z" fill="#414040" fill-opacity="0.6"/>
<path d="M16.1094 1.14286H14.1123V0H12.398V1.14286H5.53512V0H3.82084V1.14286H1.8237C1.71156 1.14191 1.60035 1.16317 1.49647 1.2054C1.39259 1.24762 1.29809 1.30999 1.21841 1.3889C1.13874 1.46781 1.07547 1.56171 1.03224 1.66518C0.989015 1.76865 0.96669 1.87965 0.966553 1.99179V4H16.9666V1.99179C16.9664 1.87965 16.9441 1.76865 16.9009 1.66518C16.8576 1.56171 16.7944 1.46781 16.7147 1.3889C16.635 1.30999 16.5405 1.24762 16.4366 1.2054C16.3328 1.16317 16.2215 1.14191 16.1094 1.14286Z" fill="#414040" fill-opacity="0.6"/>
</g>
<defs>
<clipPath id="clip0_220_71">
<rect width="16" height="16" fill="white" transform="translate(0.966553)"/>
</clipPath>
</defs>
</svg>
