<svg width="24" height="25" viewBox="0 0 24 25" fill="none" xmlns="http://www.w3.org/2000/svg">
<path d="M21.1004 9.37495L12.7004 17.8C12.6004 17.9 12.4921 17.9706 12.3754 18.012C12.2587 18.054 12.1337 18.075 12.0004 18.075C11.8671 18.075 11.7421 18.054 11.6254 18.012C11.5087 17.9706 11.4004 17.9 11.3004 17.8L2.87539 9.37495C2.64206 9.14162 2.52539 8.84995 2.52539 8.49995C2.52539 8.14995 2.65039 7.84995 2.90039 7.59995C3.15039 7.34995 3.44206 7.22495 3.77539 7.22495C4.10872 7.22495 4.40039 7.34995 4.65039 7.59995L12.0004 14.95L19.3504 7.59995C19.5837 7.36662 19.8711 7.24995 20.2124 7.24995C20.5544 7.24995 20.8504 7.37495 21.1004 7.62495C21.3504 7.87495 21.4754 8.16662 21.4754 8.49995C21.4754 8.83328 21.3504 9.12495 21.1004 9.37495Z" fill="#181818"/>
</svg>
