<svg width="14" height="14" viewBox="0 0 14 14" fill="none" xmlns="http://www.w3.org/2000/svg">
<g clip-path="url(#clip0_573_1373)">
<path d="M6.99996 2.27533C7.99746 2.27533 8.80829 3.08616 8.80829 4.08366L8.80829 6.41699L9.91663 6.41699L9.91663 4.08366C9.91663 2.47366 8.60996 1.16699 6.99996 1.16699C5.38996 1.16699 4.08329 2.47366 4.08329 4.08366L4.08329 6.41699L5.19163 6.41699L5.19163 4.08366C5.19163 3.08616 6.00246 2.27533 6.99996 2.27533ZM6.41663 4.66699L6.41663 9.33366L7.58329 9.33366L7.58329 4.66699L6.41663 4.66699ZM9.91663 9.91699L9.91663 7.58366L8.80829 7.58366L8.80829 9.91699C8.80829 10.9145 7.99746 11.7253 6.99996 11.7253C6.00246 11.7253 5.19163 10.9145 5.19163 9.91699L5.19163 7.58366L4.08329 7.58366L4.08329 9.91699C4.08329 11.527 5.38996 12.8337 6.99996 12.8337C8.60996 12.8337 9.91663 11.527 9.91663 9.91699Z" fill="#2F3641"/>
</g>
<defs>
<clipPath id="clip0_573_1373">
<rect width="14" height="14" fill="white" transform="translate(14) rotate(90)"/>
</clipPath>
</defs>
</svg>
