<svg width="20" height="20" viewBox="0 0 20 20" fill="none" xmlns="http://www.w3.org/2000/svg">
<path d="M8.75 2.5H5C4.33696 2.5 3.70107 2.76339 3.23223 3.23223C2.76339 3.70107 2.5 4.33696 2.5 5V15C2.5 15.663 2.76339 16.2989 3.23223 16.7678C3.70107 17.2366 4.33696 17.5 5 17.5H7.54375C7.45411 16.879 7.49911 16.246 7.67567 15.6439C7.85223 15.0418 8.15624 14.4847 8.56706 14.0105C8.97788 13.5362 9.4859 13.1559 10.0567 12.8953C10.6274 12.6346 11.2476 12.4998 11.875 12.5H16.875C17.0875 12.5 17.2962 12.515 17.5 12.5437V6.25H10.625C10.1277 6.25 9.65081 6.05246 9.29917 5.70083C8.94754 5.34919 8.75 4.87228 8.75 4.375V2.5ZM17.5 5C17.5 4.33696 17.2366 3.70107 16.7678 3.23223C16.2989 2.76339 15.663 2.5 15 2.5H10V4.375C10 4.54076 10.0658 4.69973 10.1831 4.81694C10.3003 4.93415 10.4592 5 10.625 5H17.5ZM11.875 13.75C11.0462 13.75 10.2513 14.0792 9.66529 14.6653C9.07924 15.2513 8.75 16.0462 8.75 16.875C8.75 17.7038 9.07924 18.4987 9.66529 19.0847C10.2513 19.6708 11.0462 20 11.875 20H12.5C12.6658 20 12.8247 19.9342 12.9419 19.8169C13.0592 19.6997 13.125 19.5408 13.125 19.375C13.125 19.2092 13.0592 19.0503 12.9419 18.9331C12.8247 18.8158 12.6658 18.75 12.5 18.75H11.875C11.3777 18.75 10.9008 18.5525 10.5492 18.2008C10.1975 17.8492 10 17.3723 10 16.875C10 16.3777 10.1975 15.9008 10.5492 15.5492C10.9008 15.1975 11.3777 15 11.875 15H12.5C12.6658 15 12.8247 14.9342 12.9419 14.8169C13.0592 14.6997 13.125 14.5408 13.125 14.375C13.125 14.2092 13.0592 14.0503 12.9419 13.9331C12.8247 13.8158 12.6658 13.75 12.5 13.75H11.875ZM16.25 13.75C16.0842 13.75 15.9253 13.8158 15.8081 13.9331C15.6908 14.0503 15.625 14.2092 15.625 14.375C15.625 14.5408 15.6908 14.6997 15.8081 14.8169C15.9253 14.9342 16.0842 15 16.25 15H16.875C17.3723 15 17.8492 15.1975 18.2008 15.5492C18.5525 15.9008 18.75 16.3777 18.75 16.875C18.75 17.3723 18.5525 17.8492 18.2008 18.2008C17.8492 18.5525 17.3723 18.75 16.875 18.75H16.25C16.0842 18.75 15.9253 18.8158 15.8081 18.9331C15.6908 19.0503 15.625 19.2092 15.625 19.375C15.625 19.5408 15.6908 19.6997 15.8081 19.8169C15.9253 19.9342 16.0842 20 16.25 20H16.875C17.7038 20 18.4987 19.6708 19.0847 19.0847C19.6708 18.4987 20 17.7038 20 16.875C20 16.0462 19.6708 15.2513 19.0847 14.6653C18.4987 14.0792 17.7038 13.75 16.875 13.75H16.25ZM11.25 16.875C11.25 16.7092 11.3158 16.5503 11.4331 16.4331C11.5503 16.3158 11.7092 16.25 11.875 16.25H16.875C17.0408 16.25 17.1997 16.3158 17.3169 16.4331C17.4342 16.5503 17.5 16.7092 17.5 16.875C17.5 17.0408 17.4342 17.1997 17.3169 17.3169C17.1997 17.4342 17.0408 17.5 16.875 17.5H11.875C11.7092 17.5 11.5503 17.4342 11.4331 17.3169C11.3158 17.1997 11.25 17.0408 11.25 16.875Z" fill="#414040"/>
</svg>
