<svg width="16" height="16" viewBox="0 0 16 16" fill="none" xmlns="http://www.w3.org/2000/svg">
<g clip-path="url(#clip0_1040_5114)">
<path d="M8.00065 1.3335C11.6827 1.3335 14.6673 4.31816 14.6673 8.00016C14.6673 11.6822 11.6827 14.6668 8.00065 14.6668C4.31865 14.6668 1.33398 11.6822 1.33398 8.00016C1.33398 4.31816 4.31865 1.3335 8.00065 1.3335ZM8.00065 2.66683C6.58616 2.66683 5.22961 3.22873 4.22941 4.22893C3.22922 5.22912 2.66732 6.58567 2.66732 8.00016C2.66732 9.41465 3.22922 10.7712 4.22941 11.7714C5.22961 12.7716 6.58616 13.3335 8.00065 13.3335C9.41514 13.3335 10.7717 12.7716 11.7719 11.7714C12.7721 10.7712 13.334 9.41465 13.334 8.00016C13.334 6.58567 12.7721 5.22912 11.7719 4.22893C10.7717 3.22873 9.41514 2.66683 8.00065 2.66683ZM8.00065 4.00016C8.16394 4.00018 8.32154 4.06013 8.44357 4.16864C8.56559 4.27715 8.64355 4.42666 8.66265 4.58883L8.66732 4.66683V7.72416L10.472 9.52883C10.5915 9.6488 10.661 9.80979 10.6661 9.97908C10.6713 10.1484 10.6118 10.3133 10.4998 10.4403C10.3878 10.5674 10.2316 10.647 10.063 10.6631C9.89439 10.6792 9.72598 10.6304 9.59198 10.5268L9.52932 10.4715L7.52932 8.4715C7.4257 8.36779 7.35916 8.23283 7.33998 8.0875L7.33398 8.00016V4.66683C7.33398 4.49002 7.40422 4.32045 7.52925 4.19542C7.65427 4.0704 7.82384 4.00016 8.00065 4.00016Z" fill="#ACACAC"/>
</g>
<defs>
<clipPath id="clip0_1040_5114">
<rect width="16" height="16" fill="white"/>
</clipPath>
</defs>
</svg>
