<svg width="40" height="40" viewBox="0 0 40 40" fill="none" xmlns="http://www.w3.org/2000/svg">
<path d="M18.7315 19.7303C20.8662 19.7303 22.5968 17.9998 22.5968 15.865C22.5968 13.7303 20.8662 11.9998 18.7315 11.9998C16.5968 11.9998 14.8662 13.7303 14.8662 15.865C14.8662 17.9998 16.5968 19.7303 18.7315 19.7303Z" fill="#146DB6"/>
<path d="M19.0696 21.6727C16.4316 21.5761 11.0009 22.8903 11.0009 25.5283V26.4946C11.0009 27.0261 11.4357 27.461 11.9672 27.461H20.2196C17.8328 24.7939 19.031 21.7693 19.0696 21.6727Z" fill="#146DB6"/>
<path d="M27.8446 25.5477C28.2988 24.7746 28.521 23.8373 28.3084 22.8227C27.9799 21.2379 26.6464 19.972 25.0423 19.7691C22.5008 19.4405 20.3556 21.5761 20.6938 24.1175C20.9064 25.7216 22.1626 27.0552 23.7474 27.3837C24.762 27.5963 25.6994 27.374 26.4724 26.9199L28.2698 28.7172C28.6466 29.0941 29.2554 29.0941 29.6323 28.7172C30.0092 28.3404 30.0092 27.7316 29.6323 27.3547L27.8446 25.5477ZM24.5301 25.5284C23.4671 25.5284 22.5975 24.6587 22.5975 23.5957C22.5975 22.5328 23.4671 21.6631 24.5301 21.6631C25.5931 21.6631 26.4627 22.5328 26.4627 23.5957C26.4627 24.6587 25.5931 25.5284 24.5301 25.5284Z" fill="#146DB6"/>
</svg>
