<svg width="40" height="40" viewBox="0 0 40 40" fill="none" xmlns="http://www.w3.org/2000/svg">
<path d="M19.7106 28.2505C20.6835 28.2505 21.4795 27.4544 21.4795 26.4813H17.9418C17.9418 27.4544 18.7289 28.2505 19.7106 28.2505ZM25.0171 22.9427V18.5195C25.0171 15.8036 23.5667 13.5301 21.0372 12.9285V12.327C21.0372 11.5927 20.4447 11 19.7106 11C18.9765 11 18.384 11.5927 18.384 12.327V12.9285C15.8457 13.5301 14.4041 15.7948 14.4041 18.5195V22.9427L13.2632 24.0839C12.706 24.6412 13.0951 25.5966 13.8823 25.5966H25.5301C26.3172 25.5966 26.7152 24.6412 26.158 24.0839L25.0171 22.9427Z" fill="#146DB6"/>
<circle cx="24.0751" cy="14.5138" r="2.55557" fill="#FC5A5A"/>
</svg>
