<svg width="38" height="38" viewBox="0 0 38 38" fill="none" xmlns="http://www.w3.org/2000/svg">
<g opacity="0.95">
<path d="M18.9998 33.5715H8.39996V4.42895H18.9998V11.7146C19.0017 12.3581 19.2552 12.9747 19.7048 13.4297C20.1545 13.8847 20.7638 14.1412 21.3998 14.1431H28.5996V19.0002H30.9996V11.7146C31.0038 11.555 30.9739 11.3964 30.9117 11.2496C30.8496 11.1029 30.7567 10.9715 30.6396 10.8646L22.2398 2.36469C22.1341 2.24611 22.0043 2.15214 21.8593 2.08925C21.7143 2.02635 21.5575 1.99605 21.3998 2.00041H8.39996C7.76404 2.00233 7.1547 2.25882 6.70503 2.71384C6.25536 3.16886 6.0019 3.78546 6 4.42895V33.5715C6.0019 34.215 6.25536 34.8316 6.70503 35.2866C7.1547 35.7416 7.76404 35.9981 8.39996 36H18.9998V33.5715ZM21.3998 4.91466L28.1197 11.7146H21.3998V4.91466Z" fill="white"/>
<path d="M13 27H17.2308M13 21H24" stroke="white" stroke-width="2" stroke-linecap="square"/>
<path d="M33.8898 22L37 25.1115L32.9999 29.9969L34.3329 31.3308L30.9989 34.6655L28.1106 31.7765L23.8886 35.9994L23 35.1099L27.2219 30.8877L24.3329 27.9987L27.6675 24.6633L29.0004 25.9972L33.8898 22Z" fill="white"/>
</g>
</svg>
