<svg width="28" height="28" viewBox="0 0 28 28" fill="none" xmlns="http://www.w3.org/2000/svg">
<rect width="28" height="28" rx="8" fill="#3697E5"/>
<path d="M12.2828 20.2632H10.3611C9.79348 20.2631 9.24461 20.0741 8.81382 19.7303C8.38304 19.3864 8.09878 18.9105 8.0125 18.3886L7.01841 12.3819C6.98369 12.1719 6.9982 11.9574 7.06095 11.7531C7.1237 11.5488 7.2332 11.3595 7.38194 11.1982C7.53069 11.037 7.71516 10.9076 7.92271 10.8188C8.13026 10.7301 8.35599 10.6842 8.58441 10.6842H17.5661C17.7945 10.6842 18.0203 10.7301 18.2278 10.8188C18.4354 10.9076 18.6198 11.037 18.7686 11.1982C18.9173 11.3595 19.0268 11.5488 19.0896 11.7531C19.1523 11.9574 19.1668 12.1719 19.1321 12.3819L19.0458 12.9028" fill="#3697E5"/>
<path d="M10.6985 12.8947V9.21053C10.6985 8.62426 10.9489 8.062 11.3946 7.64745C11.8402 7.23289 12.4446 7 13.0749 7C13.7051 7 14.3095 7.23289 14.7552 7.64745C15.2008 8.062 15.4512 8.62426 15.4512 9.21053V12.8947M18.1602 16.2916C18.3147 16.1479 18.4981 16.0339 18.6999 15.9561C18.9017 15.8784 19.118 15.8383 19.3365 15.8383C19.5549 15.8383 19.7713 15.8784 19.9731 15.9561C20.1749 16.0339 20.3583 16.1479 20.5128 16.2916C20.6672 16.4353 20.7898 16.6059 20.8734 16.7936C20.957 16.9814 21 17.1826 21 17.3858C21 17.589 20.957 17.7902 20.8734 17.978C20.7898 18.1657 20.6672 18.3363 20.5128 18.48L17.8275 21H15.4512V18.7895L18.1602 16.2916Z" fill="#3697E5"/>
<path d="M12.2828 20.2632H10.3611C9.79348 20.2631 9.24461 20.0741 8.81382 19.7303C8.38304 19.3864 8.09878 18.9105 8.0125 18.3886L7.01841 12.3819C6.98369 12.1719 6.9982 11.9574 7.06095 11.7531C7.1237 11.5488 7.2332 11.3595 7.38194 11.1982C7.53069 11.037 7.71516 10.9076 7.92271 10.8188C8.13026 10.7301 8.35599 10.6842 8.58441 10.6842H17.5661C17.7945 10.6842 18.0203 10.7301 18.2278 10.8188C18.4354 10.9076 18.6198 11.037 18.7686 11.1982C18.9173 11.3595 19.0268 11.5488 19.0896 11.7531C19.1523 11.9574 19.1668 12.1719 19.1321 12.3819L19.0458 12.9028M10.6985 12.8947V9.21053C10.6985 8.62426 10.9489 8.062 11.3946 7.64745C11.8402 7.23289 12.4446 7 13.0749 7C13.7051 7 14.3095 7.23289 14.7552 7.64745C15.2008 8.062 15.4512 8.62426 15.4512 9.21053V12.8947M18.1602 16.2916C18.3147 16.1479 18.4981 16.0339 18.6999 15.9561C18.9017 15.8784 19.118 15.8383 19.3365 15.8383C19.5549 15.8383 19.7713 15.8784 19.9731 15.9561C20.1749 16.0339 20.3583 16.1479 20.5128 16.2916C20.6672 16.4353 20.7898 16.6059 20.8734 16.7936C20.957 16.9814 21 17.1826 21 17.3858C21 17.589 20.957 17.7902 20.8734 17.978C20.7898 18.1657 20.6672 18.3363 20.5128 18.48L17.8275 21H15.4512V18.7895L18.1602 16.2916Z" stroke="white" stroke-width="1.2" stroke-linecap="round" stroke-linejoin="round"/>
</svg>
