<svg width="28" height="28" viewBox="0 0 28 28" fill="none" xmlns="http://www.w3.org/2000/svg">
<rect width="28" height="28" rx="8" fill="#FE9061"/>
<path d="M14.4589 8.20509C14.394 8.13999 14.3168 8.08837 14.2319 8.05317C14.147 8.01797 14.0559 7.99991 13.964 8H10.464C10.3721 7.99991 10.2811 8.01797 10.1961 8.05317C10.1112 8.08837 10.0341 8.13999 9.96914 8.20509L7.86916 10.305C7.80403 10.3699 7.75238 10.447 7.71718 10.5319C7.68198 10.6169 7.66393 10.7079 7.66406 10.7999V14.2997C7.66406 14.4859 7.73756 14.6637 7.86916 14.7945L14.8691 21.7942C14.9339 21.8594 15.0111 21.9112 15.096 21.9465C15.1809 21.9818 15.272 22 15.364 22C15.456 22 15.547 21.9818 15.632 21.9465C15.7169 21.9112 15.794 21.8594 15.8589 21.7942L21.4588 16.1945C21.5239 16.1295 21.5755 16.0524 21.6107 15.9675C21.6459 15.8826 21.6641 15.7915 21.6641 15.6996C21.6641 15.6077 21.6459 15.5166 21.6107 15.4317C21.5755 15.3468 21.5239 15.2697 21.4588 15.2047L14.4589 8.20509ZM15.364 20.3096L9.06405 14.0099V11.0896L10.7538 9.39993H13.6742L19.9741 15.6996L15.364 20.3096Z" fill="white"/>
<path d="M11.7611 13.0313C12.2765 13.0313 12.6944 12.6134 12.6944 12.0979C12.6944 11.5825 12.2765 11.1646 11.7611 11.1646C11.2456 11.1646 10.8277 11.5825 10.8277 12.0979C10.8277 12.6134 11.2456 13.0313 11.7611 13.0313Z" fill="white"/>
</svg>
