<svg width="18" height="18" viewBox="0 0 18 18" fill="none" xmlns="http://www.w3.org/2000/svg">
<path d="M13.5 6H12.75V5.25C12.75 3.18225 11.0677 1.5 9 1.5C6.93225 1.5 5.25 3.18225 5.25 5.25V6H4.5C4.10218 6 3.72064 6.15804 3.43934 6.43934C3.15804 6.72064 3 7.10218 3 7.5V15C3 15.3978 3.15804 15.7794 3.43934 16.0607C3.72064 16.342 4.10218 16.5 4.5 16.5H13.5C13.8978 16.5 14.2794 16.342 14.5607 16.0607C14.842 15.7794 15 15.3978 15 15V7.5C15 7.10218 14.842 6.72064 14.5607 6.43934C14.2794 6.15804 13.8978 6 13.5 6ZM6.75 5.25C6.75 4.0095 7.7595 3 9 3C10.2405 3 11.25 4.0095 11.25 5.25V6H6.75V5.25ZM9.75 11.7922V13.5H8.25V11.7922C7.80375 11.5327 7.5 11.0543 7.5 10.5C7.5 10.1022 7.65804 9.72064 7.93934 9.43934C8.22064 9.15804 8.60218 9 9 9C9.39782 9 9.77936 9.15804 10.0607 9.43934C10.342 9.72064 10.5 10.1022 10.5 10.5C10.5 11.0535 10.1963 11.532 9.75 11.7922Z" fill="#2C2E35"/>
</svg>
