<svg width="22" height="22" viewBox="0 0 22 22" fill="none" xmlns="http://www.w3.org/2000/svg">
<path d="M18.6896 10.8853L11.8742 4.15332C11.8252 4.10472 11.7669 4.06616 11.7027 4.03985C11.6386 4.01354 11.5698 4 11.5003 4C11.4308 4 11.3621 4.01354 11.2979 4.03985C11.2337 4.06616 11.1754 4.10472 11.1264 4.15332L4.31107 10.8853C4.11251 11.0816 4 11.3482 4 11.6262C4 12.2036 4.47487 12.673 5.05895 12.673H5.77704V17.4766C5.77704 17.7661 6.01365 18 6.30652 18H10.4414V14.3363H12.2945V18H16.6941C16.987 18 17.2236 17.7661 17.2236 17.4766V12.673H17.9417C18.223 12.673 18.4927 12.5634 18.6912 12.3655C19.1032 11.9566 19.1032 11.2942 18.6896 10.8853Z" fill="white"/>
</svg>
