<svg width="22" height="22" viewBox="0 0 22 22" fill="none" xmlns="http://www.w3.org/2000/svg">
<circle cx="7" cy="6" r="3" fill="white"/>
<mask id="path-2-inside-1_166_425" fill="white">
<path fill-rule="evenodd" clip-rule="evenodd" d="M7 11C9.76142 11 12 8.76142 12 6C12 5.2889 11.8516 4.61246 11.584 4H16C17.1046 4 18 4.89543 18 6V16C18 17.1046 17.1046 18 16 18H6C4.89543 18 4 17.1046 4 16V10.0004C4.83566 10.6281 5.87439 11 7 11Z"/>
</mask>
<path fill-rule="evenodd" clip-rule="evenodd" d="M7 11C9.76142 11 12 8.76142 12 6C12 5.2889 11.8516 4.61246 11.584 4H16C17.1046 4 18 4.89543 18 6V16C18 17.1046 17.1046 18 16 18H6C4.89543 18 4 17.1046 4 16V10.0004C4.83566 10.6281 5.87439 11 7 11Z" fill="white"/>
<path d="M11.584 4V2H8.52755L9.75125 4.80074L11.584 4ZM4 10.0004L5.20116 8.40123L2 5.99675V10.0004H4ZM10 6C10 7.65685 8.65685 9 7 9V13C10.866 13 14 9.86599 14 6H10ZM9.75125 4.80074C9.91059 5.16544 10 5.56965 10 6H14C14 5.00814 13.7925 4.05948 13.4167 3.19926L9.75125 4.80074ZM11.584 6H16V2H11.584V6ZM16 6H20C20 3.79086 18.2091 2 16 2V6ZM16 6V16H20V6H16ZM16 16V20C18.2091 20 20 18.2091 20 16H16ZM16 16H6V20H16V16ZM6 16H6H2C2 18.2091 3.79086 20 6 20V16ZM6 16V10.0004H2V16H6ZM7 9C6.32234 9 5.70236 8.77771 5.20116 8.40123L2.79884 11.5995C3.96896 12.4784 5.42645 13 7 13V9Z" fill="white" mask="url(#path-2-inside-1_166_425)"/>
</svg>
