<svg width="22" height="22" viewBox="0 0 22 22" fill="none" xmlns="http://www.w3.org/2000/svg">
<path d="M11.0029 8.82159C10.4736 8.82159 9.97805 9.02903 9.60281 9.40813C9.22934 9.78724 9.02225 10.2879 9.02225 10.8226C9.02225 11.3573 9.22934 11.858 9.60281 12.2371C9.97805 12.6144 10.4736 12.8237 11.0029 12.8237C11.5321 12.8237 12.0277 12.6144 12.403 12.2371C12.7764 11.858 12.9835 11.3573 12.9835 10.8226C12.9835 10.2879 12.7764 9.78724 12.403 9.40813C12.2197 9.22154 12.0015 9.07361 11.7612 8.97292C11.5208 8.87223 11.2631 8.82079 11.0029 8.82159ZM18.3006 13.0329L17.143 12.0333C17.1979 11.6935 17.2262 11.3466 17.2262 11.0014C17.2262 10.6563 17.1979 10.3076 17.143 9.96964L18.3006 8.97002C18.388 8.89439 18.4506 8.79365 18.48 8.68121C18.5094 8.56877 18.5043 8.44996 18.4652 8.34056L18.4493 8.29406C18.1307 7.39403 17.6533 6.55976 17.0404 5.83167L17.0085 5.79411C16.9341 5.70569 16.8349 5.64213 16.7239 5.6118C16.613 5.58147 16.4956 5.58581 16.3872 5.62423L14.95 6.14103C14.419 5.70113 13.8278 5.35421 13.1871 5.1128L12.9092 3.59459C12.8882 3.48022 12.8333 3.375 12.7517 3.29291C12.6702 3.21082 12.5658 3.15575 12.4525 3.13501L12.4047 3.12607C11.4843 2.95798 10.5144 2.95798 9.59396 3.12607L9.54617 3.13501C9.43288 3.15575 9.32852 3.21082 9.24696 3.29291C9.16539 3.375 9.11047 3.48022 9.08951 3.59459L8.80985 5.11995C8.17517 5.36329 7.58394 5.70936 7.05932 6.14461L5.61145 5.62423C5.50307 5.5855 5.38559 5.58101 5.27461 5.61136C5.16364 5.6417 5.06444 5.70544 4.99018 5.79411L4.95832 5.83167C4.34642 6.56053 3.86919 7.3946 3.5494 8.29406L3.53347 8.34056C3.45382 8.56409 3.51931 8.81444 3.69808 8.97002L4.86982 9.98037C4.81495 10.3166 4.7884 10.6599 4.7884 10.9997C4.7884 11.343 4.81495 11.6863 4.86982 12.019L3.70162 13.0293C3.61418 13.1049 3.55159 13.2057 3.52219 13.3181C3.49278 13.4305 3.49795 13.5494 3.53701 13.6588L3.55294 13.7053C3.87331 14.6047 4.3459 15.4363 4.96186 16.1677L4.99372 16.2052C5.06816 16.2936 5.16737 16.3572 5.27827 16.3875C5.38918 16.4178 5.50658 16.4135 5.61499 16.3751L7.06286 15.8547C7.59032 16.2928 8.17796 16.6397 8.81339 16.8794L9.09305 18.4047C9.11401 18.5191 9.16893 18.6243 9.2505 18.7064C9.33206 18.7885 9.43642 18.8436 9.54971 18.8643L9.5975 18.8733C10.527 19.0422 11.4788 19.0422 12.4083 18.8733L12.4561 18.8643C12.5693 18.8436 12.6737 18.7885 12.7553 18.7064C12.8368 18.6243 12.8917 18.5191 12.9127 18.4047L13.1906 16.8865C13.8313 16.6433 14.4225 16.2982 14.9535 15.8583L16.3908 16.3751C16.4992 16.4138 16.6166 16.4183 16.7276 16.388C16.8386 16.3576 16.9378 16.2939 17.012 16.2052L17.0439 16.1677C17.6599 15.4327 18.1324 14.6047 18.4528 13.7053L18.4687 13.6588C18.5449 13.437 18.4794 13.1885 18.3006 13.0329ZM11.0029 13.9663C9.28421 13.9663 7.89122 12.559 7.89122 10.8226C7.89122 9.08625 9.28421 7.67891 11.0029 7.67891C12.7216 7.67891 14.1145 9.08625 14.1145 10.8226C14.1145 12.559 12.7216 13.9663 11.0029 13.9663Z" fill="#EAEDF4"/>
</svg>
