<svg width="21" height="21" viewBox="0 0 21 21" fill="none" xmlns="http://www.w3.org/2000/svg">
<g clip-path="url(#clip0_554_2599)">
<path d="M9.55794 15.4997C9.55794 16.4163 8.80794 17.1663 7.89128 17.1663C6.97461 17.1663 6.22461 16.4163 6.22461 15.4997C6.22461 14.583 6.97461 13.833 7.89128 13.833C8.80794 13.833 9.55794 14.583 9.55794 15.4997ZM7.89128 8.83301C6.97461 8.83301 6.22461 9.58301 6.22461 10.4997C6.22461 11.4163 6.97461 12.1663 7.89128 12.1663C8.80794 12.1663 9.55794 11.4163 9.55794 10.4997C9.55794 9.58301 8.80794 8.83301 7.89128 8.83301ZM7.89128 3.83301C6.97461 3.83301 6.22461 4.58301 6.22461 5.49967C6.22461 6.41634 6.97461 7.16634 7.89128 7.16634C8.80794 7.16634 9.55794 6.41634 9.55794 5.49967C9.55794 4.58301 8.80794 3.83301 7.89128 3.83301ZM12.8913 7.16634C13.8079 7.16634 14.5579 6.41634 14.5579 5.49967C14.5579 4.58301 13.8079 3.83301 12.8913 3.83301C11.9746 3.83301 11.2246 4.58301 11.2246 5.49967C11.2246 6.41634 11.9746 7.16634 12.8913 7.16634ZM12.8913 8.83301C11.9746 8.83301 11.2246 9.58301 11.2246 10.4997C11.2246 11.4163 11.9746 12.1663 12.8913 12.1663C13.8079 12.1663 14.5579 11.4163 14.5579 10.4997C14.5579 9.58301 13.8079 8.83301 12.8913 8.83301ZM12.8913 13.833C11.9746 13.833 11.2246 14.583 11.2246 15.4997C11.2246 16.4163 11.9746 17.1663 12.8913 17.1663C13.8079 17.1663 14.5579 16.4163 14.5579 15.4997C14.5579 14.583 13.8079 13.833 12.8913 13.833Z" fill="#CFCFCF"/>
</g>
<defs>
<clipPath id="clip0_554_2599">
<rect width="20" height="20" fill="white" transform="translate(0.391113 0.5)"/>
</clipPath>
</defs>
</svg>
