<svg width="22" height="22" viewBox="0 0 22 22" fill="none" xmlns="http://www.w3.org/2000/svg">
<path d="M14.2 6.47059H15.8V18H6.2V6.47059H7.8V5.64706C7.8 5.21023 7.96857 4.7913 8.26863 4.48241C8.56869 4.17353 8.97565 4 9.4 4H12.6C13.0243 4 13.4313 4.17353 13.7314 4.48241C14.0314 4.7913 14.2 5.21023 14.2 5.64706V6.47059ZM16.6 6.47059H17.4C17.8243 6.47059 18.2313 6.64412 18.5314 6.953C18.8314 7.26188 19 7.68082 19 8.11765V16.3529C19 16.7898 18.8314 17.2087 18.5314 17.5176C18.2313 17.8265 17.8243 18 17.4 18H16.6V6.47059ZM5.4 6.47059V18H4.6C4.17565 18 3.76869 17.8265 3.46863 17.5176C3.16857 17.2087 3 16.7898 3 16.3529V8.11765C3 7.21176 3.72 6.47059 4.6 6.47059H5.4ZM9.4 5.64706V6.47059H12.6V5.64706H9.4Z" fill="white"/>
</svg>
