<svg width="22" height="22" viewBox="0 0 22 22" fill="none" xmlns="http://www.w3.org/2000/svg">
<path fill-rule="evenodd" clip-rule="evenodd" d="M4.91156 3.9376C4 4.8744 4 6.3832 4 9.4V12.6C4 15.6168 4 17.1256 4.91156 18.0624C5.82233 19 7.28922 19 10.2222 19H11.7778C14.7108 19 16.1777 19 17.0884 18.0624C18 17.1256 18 15.6168 18 12.6V9.4C18 6.3832 18 4.8744 17.0884 3.9376C16.1777 3 14.7108 3 11.7778 3H10.2222C7.28922 3 5.82233 3 4.91156 3.9376ZM7.88889 8.8C7.73418 8.8 7.58581 8.86321 7.47641 8.97574C7.36701 9.08826 7.30556 9.24087 7.30556 9.4C7.30556 9.55913 7.36701 9.71174 7.47641 9.82426C7.58581 9.93679 7.73418 10 7.88889 10H14.1111C14.2658 10 14.4142 9.93679 14.5236 9.82426C14.633 9.71174 14.6944 9.55913 14.6944 9.4C14.6944 9.24087 14.633 9.08826 14.5236 8.97574C14.4142 8.86321 14.2658 8.8 14.1111 8.8H7.88889ZM7.88889 12C7.73418 12 7.58581 12.0632 7.47641 12.1757C7.36701 12.2883 7.30556 12.4409 7.30556 12.6C7.30556 12.7591 7.36701 12.9117 7.47641 13.0243C7.58581 13.1368 7.73418 13.2 7.88889 13.2H11.7778C11.9325 13.2 12.0809 13.1368 12.1903 13.0243C12.2997 12.9117 12.3611 12.7591 12.3611 12.6C12.3611 12.4409 12.2997 12.2883 12.1903 12.1757C12.0809 12.0632 11.9325 12 11.7778 12H7.88889Z" fill="#1BADFF"/>
</svg>
