<svg width="22" height="22" viewBox="0 0 22 22" fill="none" xmlns="http://www.w3.org/2000/svg">
<path d="M11 3C9.93913 3 8.92172 3.42143 8.17157 4.17157C7.42143 4.92172 7 5.93913 7 7C7 8.06087 7.42143 9.07828 8.17157 9.82843C8.92172 10.5786 9.93913 11 11 11C12.0609 11 13.0783 10.5786 13.8284 9.82843C14.5786 9.07828 15 8.06087 15 7C15 5.93913 14.5786 4.92172 13.8284 4.17157C13.0783 3.42143 12.0609 3 11 3ZM6.009 12C5.74564 11.9989 5.48466 12.0499 5.24102 12.1499C4.99739 12.2499 4.7759 12.3971 4.58926 12.5829C4.40261 12.7687 4.25448 12.9895 4.15337 13.2327C4.05225 13.4759 4.00013 13.7366 4 14C4 15.691 4.833 16.966 6.135 17.797C7.417 18.614 9.145 19 11 19C12.855 19 14.583 18.614 15.865 17.797C17.167 16.967 18 15.69 18 14C18 13.4696 17.7893 12.9609 17.4142 12.5858C17.0391 12.2107 16.5304 12 16 12H6.009Z" fill="#1BADFF"/>
</svg>
