<svg width="33" height="33" viewBox="0 0 33 33" fill="none" xmlns="http://www.w3.org/2000/svg">
<path d="M22.536 12.95H22.7968L22.6657 12.7246C21.8799 11.374 20.6274 10.326 19.1206 9.81009L18.7576 9.6858L18.94 10.0233C19.4138 10.8998 19.7775 11.8482 20.0307 12.8372L20.0596 12.95H20.176H22.536ZM17.1234 9.54667L17 9.36831L16.8766 9.54667C16.204 10.5192 15.677 11.5974 15.3284 12.7568L15.2703 12.95H15.472H18.528H18.7297L18.6716 12.7568C18.323 11.5974 17.796 10.5192 17.1234 9.54667ZM10.6625 17.6364L10.6909 17.75H10.808H13.512H13.6813L13.6609 17.582C13.5972 17.0567 13.55 16.5354 13.55 16C13.55 15.4646 13.5972 14.9433 13.6609 14.418L13.6813 14.25H13.512H10.808H10.6909L10.6625 14.3636C10.5321 14.8852 10.45 15.4335 10.45 16C10.45 16.5665 10.5321 17.1148 10.6625 17.6364ZM11.464 19.05H11.204L11.3342 19.2751C12.1202 20.6342 13.3729 21.6741 14.8794 22.1899L15.2424 22.3142L15.06 21.9767C14.5862 21.1002 14.2225 20.1518 13.9693 19.1628L13.9404 19.05H13.824H11.464ZM13.824 12.95H13.9404L13.9693 12.8372C14.2225 11.8482 14.5862 10.8998 15.06 10.0233L15.2424 9.6858L14.8794 9.81009C13.3729 10.3259 12.1202 11.3658 11.3342 12.7249L11.204 12.95H11.464H13.824ZM16.8766 22.4533L17 22.6317L17.1234 22.4533C17.796 21.4808 18.323 20.4026 18.6716 19.2432L18.7297 19.05H18.528H15.472H15.2703L15.3284 19.2432C15.677 20.4026 16.204 21.4808 16.8766 22.4533ZM18.872 17.75H19.0029L19.0206 17.6203C19.093 17.0897 19.15 16.554 19.15 16C19.15 15.4461 19.093 14.9024 19.0206 14.3794L19.0027 14.25H18.872H15.128H14.9973L14.9794 14.3794C14.907 14.9024 14.85 15.4461 14.85 16C14.85 16.554 14.907 17.0897 14.9794 17.6203L14.9971 17.75H15.128H18.872ZM18.94 21.9767L18.7576 22.3142L19.1206 22.1899C20.6274 21.674 21.8799 20.626 22.6657 19.2754L22.7968 19.05H22.536H20.176H20.0596L20.0307 19.1628C19.7775 20.1518 19.4138 21.1002 18.94 21.9767ZM20.3391 17.582L20.3187 17.75H20.488H23.192H23.3091L23.3375 17.6364C23.4679 17.1148 23.55 16.5665 23.55 16C23.55 15.4335 23.4679 14.8852 23.3375 14.3636L23.3091 14.25H23.192H20.488H20.3187L20.3391 14.418C20.4028 14.9433 20.45 15.4646 20.45 16C20.45 16.5354 20.4028 17.0567 20.3391 17.582ZM9.15 16C9.15 11.6666 12.659 8.15 16.992 8.15C21.3333 8.15 24.85 11.6669 24.85 16C24.85 20.3331 21.3333 23.85 16.992 23.85C12.659 23.85 9.15 20.3334 9.15 16Z" fill="#4F4F4F" stroke="white" stroke-width="0.3"/>
</svg>
