<svg width="40" height="40" viewBox="0 0 40 40" fill="none" xmlns="http://www.w3.org/2000/svg">
<g clip-path="url(#clip0_839_1151)">
<path fill-rule="evenodd" clip-rule="evenodd" d="M9.47098 16.9915C9.47098 14.9967 10.2634 13.0836 11.674 11.6731C13.0845 10.2626 14.9977 9.47018 16.9925 9.47018C18.9873 9.47018 20.9004 10.2626 22.311 11.6731C23.7215 13.0836 24.514 14.9967 24.514 16.9915C24.514 18.9862 23.7215 20.8993 22.311 22.3098C20.9004 23.7203 18.9873 24.5128 16.9925 24.5128C14.9977 24.5128 13.0845 23.7203 11.674 22.3098C10.2634 20.8993 9.47098 18.9862 9.47098 16.9915ZM16.9925 6.46167C15.3246 6.46167 13.6806 6.85785 12.1958 7.61759C10.711 8.37732 9.42794 9.47888 8.45224 10.8315C7.47653 12.1842 6.8361 13.7493 6.58369 15.3979C6.33128 17.0465 6.4741 18.7315 7.0004 20.3141C7.5267 21.8968 8.42142 23.3317 9.61088 24.5009C10.8003 25.67 12.2505 26.5399 13.842 27.0389C15.4335 27.5379 17.1207 27.6518 18.7648 27.3711C20.4089 27.0903 21.9628 26.4231 23.2985 25.4243L30.9704 33.0975C31.2525 33.3798 31.6351 33.5385 32.0342 33.5386C32.4332 33.5387 32.816 33.3804 33.0983 33.0983C33.3805 32.8162 33.5392 32.4336 33.5393 32.0346C33.5395 31.6355 33.3811 31.2528 33.099 30.9705L25.4271 23.2988C26.5979 21.7337 27.31 19.8735 27.4836 17.9266C27.6572 15.9797 27.2855 14.0229 26.41 12.2753C25.5345 10.5277 24.1899 9.05829 22.5266 8.03152C20.8634 7.00475 18.9472 6.46118 16.9925 6.46167Z" fill="#181818"/>
</g>
<defs>
<clipPath id="clip0_839_1151">
<rect width="32" height="32" fill="white" transform="translate(4 4)"/>
</clipPath>
</defs>
</svg>
