<svg width="18" height="18" viewBox="0 0 18 18" fill="none" xmlns="http://www.w3.org/2000/svg">
<path fill-rule="evenodd" clip-rule="evenodd" d="M3.64466 3.2637C3.12607 3.77538 2.71383 4.38459 2.43166 5.05624C2.14948 5.7279 2.00296 6.44874 2.00052 7.17726C1.99808 7.90578 2.13977 8.62758 2.41744 9.30111C2.6951 9.97465 3.10326 10.5866 3.6184 11.1017C4.13354 11.6169 4.7455 12.025 5.41903 12.3027C6.09256 12.5804 6.81436 12.7221 7.54288 12.7196C8.2714 12.7172 8.99224 12.5707 9.6639 12.2885C10.3356 12.0063 10.9448 11.5941 11.4564 11.0755C12.4809 10.0372 13.0531 8.63586 13.0482 7.17726C13.0433 5.71865 12.4618 4.32118 11.4304 3.28978C10.399 2.25839 9.00149 1.67679 7.54288 1.67191C6.08428 1.66702 4.68294 2.23924 3.64466 3.2637ZM10.7464 10.3654C10.3285 10.7934 9.82993 11.1341 9.27943 11.3679C8.72894 11.6017 8.13751 11.724 7.53943 11.7275C6.94134 11.7311 6.3485 11.6159 5.79527 11.3886C5.24204 11.1614 4.73941 10.8266 4.31653 10.4036C3.89365 9.98066 3.55892 9.47798 3.33175 8.92471C3.10457 8.37144 2.98947 7.77858 2.99312 7.1805C2.99677 6.58242 3.11909 5.99101 3.35299 5.44055C3.58689 4.89009 3.92772 4.39153 4.35573 3.97377C5.20332 3.12619 6.35289 2.65002 7.55155 2.65002C8.75022 2.65002 9.89979 3.12619 10.7474 3.97377C11.595 4.82136 12.0711 5.97093 12.0711 7.16959C12.0711 8.36826 11.594 9.51783 10.7464 10.3654Z" fill="#E34C4C"/>
<path d="M10.4927 12.2424C10.3098 12.053 10.2086 11.7993 10.2109 11.536C10.2131 11.2726 10.3188 11.0207 10.505 10.8345C10.6912 10.6483 10.9431 10.5427 11.2064 10.5404C11.4698 10.5381 11.7235 10.6393 11.9129 10.8223L15.7183 14.6277C15.9013 14.8172 16.0025 15.0709 16.0002 15.3342C15.998 15.5975 15.8923 15.8494 15.7061 16.0356C15.5199 16.2219 15.268 16.3275 15.0047 16.3298C14.7413 16.3321 14.4876 16.2308 14.2982 16.0479L10.4927 12.2414V12.2424ZM5.67893 7.76606C5.54575 7.76606 5.41802 7.71316 5.32384 7.61898C5.22967 7.5248 5.17676 7.39707 5.17676 7.26389C5.17676 7.13071 5.22967 7.00298 5.32384 6.9088C5.41802 6.81463 5.54575 6.76172 5.67893 6.76172H9.6963C9.82949 6.76172 9.95722 6.81463 10.0514 6.9088C10.1456 7.00298 10.1985 7.13071 10.1985 7.26389C10.1985 7.39707 10.1456 7.5248 10.0514 7.61898C9.95722 7.71316 9.82949 7.76606 9.6963 7.76606H5.67893Z" fill="#E34C4C"/>
<path d="M7.18506 5.25217C7.18506 5.11899 7.23797 4.99126 7.33214 4.89708C7.42632 4.80291 7.55405 4.75 7.68723 4.75C7.82041 4.75 7.94814 4.80291 8.04232 4.89708C8.1365 4.99126 8.1894 5.11899 8.1894 5.25217V9.26955C8.1894 9.40273 8.1365 9.53046 8.04232 9.62463C7.94814 9.71881 7.82041 9.77172 7.68723 9.77172C7.55405 9.77172 7.42632 9.71881 7.33214 9.62463C7.23797 9.53046 7.18506 9.40273 7.18506 9.26955V5.25217Z" fill="#E34C4C"/>
</svg>
