<svg width="20" height="20" viewBox="0 0 20 20" fill="none" xmlns="http://www.w3.org/2000/svg">
<path d="M2.94226 6.5V2H3.94226V6.5C3.94226 6.89782 4.1003 7.27936 4.3816 7.56066C4.66291 7.84196 5.04444 8 5.44226 8C5.84009 8 6.22162 7.84196 6.50292 7.56066C6.78423 7.27936 6.94226 6.89782 6.94226 6.5V3.5C6.94226 3.36739 6.88958 3.24021 6.79581 3.14645C6.70205 3.05268 6.57487 3 6.44226 3C6.30965 3 6.18248 3.05268 6.08871 3.14645C5.99494 3.24021 5.94226 3.36739 5.94226 3.5V7H4.94226V3.5C4.94226 3.30302 4.98106 3.10796 5.05644 2.92597C5.13182 2.74399 5.24231 2.57863 5.3816 2.43934C5.52089 2.30005 5.68625 2.18956 5.86824 2.11418C6.05022 2.0388 6.24528 2 6.44226 2C6.63924 2 6.8343 2.0388 7.01629 2.11418C7.19827 2.18956 7.36363 2.30005 7.50292 2.43934C7.64221 2.57863 7.7527 2.74399 7.82808 2.92597C7.90346 3.10796 7.94226 3.30302 7.94226 3.5V6.5C7.94226 7.16304 7.67887 7.79893 7.21003 8.26777C6.74119 8.73661 6.1053 9 5.44226 9C4.77922 9 4.14333 8.73661 3.67449 8.26777C3.20565 7.79893 2.94226 7.16304 2.94226 6.5Z" fill="#1C1D1F"/>
<path fill-rule="evenodd" clip-rule="evenodd" d="M15.4423 2H9.32688V6.8C9.32688 7.79014 8.92976 8.73973 8.22289 9.43987C7.51603 10.14 6.55731 10.5333 5.55765 10.5333H3.94226V16.4C3.94226 16.8243 4.11245 17.2313 4.4154 17.5314C4.71834 17.8314 5.12922 18 5.55765 18H15.4423C15.8707 18 16.2816 17.8314 16.5845 17.5314C16.8875 17.2313 17.0576 16.8243 17.0576 16.4V3.6C17.0576 3.17565 16.8875 2.76869 16.5845 2.46863C16.2816 2.16857 15.8707 2 15.4423 2ZM14.7115 6.26667H10.4038V7.33333H14.7115V6.26667ZM14.7115 9.46667H10.4038V10.5333H14.7115V9.46667ZM7.17303 12.6667H14.7115V13.7333H7.17303V12.6667Z" fill="#1C1D1F"/>
</svg>
