<svg width="220" height="26" viewBox="0 0 220 26" fill="none" xmlns="http://www.w3.org/2000/svg">
<g clip-path="url(#clip0_47_1865)">
<path d="M80.294 16.5795V14.8646H89.7476V12.0843H79.6499C78.3267 12.0843 77.256 13.2276 77.256 14.6394V16.4323C77.256 17.8441 78.3267 18.9874 79.6499 18.9874H86.962V20.711H77.6739V23.4913H87.6061C88.9206 23.4913 90 22.348 90 20.9362V19.152C90 17.7402 88.9293 16.5968 87.6061 16.5968L80.294 16.5795ZM72.329 23.4827H75.3322V12.0669H72.329V23.4827ZM65.043 23.4913L71.2322 12.0063H67.8982L63.3717 20.4079L58.8451 12.0063H55.5112L61.7004 23.4913H65.0518H65.043ZM55.1194 20.9102V14.674C55.1194 13.2622 54.0487 12.1189 52.7256 12.1189H43.9162C42.5931 12.1189 41.5224 13.2622 41.5224 14.674V20.9102C41.5224 22.322 42.5931 23.4654 43.9162 23.4654H52.7256C54.0487 23.4654 55.1194 22.322 55.1194 20.9102ZM52.1772 19.4118C52.1772 20.148 51.6201 20.737 50.9324 20.737H45.7007C45.0131 20.737 44.4559 20.1394 44.4559 19.4118V16.1811C44.4559 15.4535 45.0131 14.8559 45.7007 14.8559H50.9324C51.6201 14.8559 52.1772 15.4535 52.1772 16.1811V19.4118ZM44.7258 8.65433H46.3188V1.5H44.7258V8.66299V8.65433ZM41.5746 8.65433H43.1676V1.5H38.4496C38.0317 1.5 37.6922 1.62992 37.4485 1.89843C37.2048 2.15827 37.0829 2.52205 37.0829 2.96378V8.66299H38.6759V6.44567H41.5746V8.66299V8.65433ZM41.5746 4.88661H38.6759V3.40551C38.6759 3.23228 38.8065 3.04173 39.0154 3.04173H41.5746V4.88661ZM35.3071 8.25591C35.5508 7.99606 35.6727 7.63228 35.6727 7.19055V2.96378C35.6727 2.51339 35.5508 2.15827 35.3071 1.89843C35.0634 1.62992 34.7239 1.5 34.306 1.5H29.588V8.66299H34.306C34.7239 8.66299 35.0634 8.53307 35.3071 8.26457M34.0797 6.74016C34.0797 6.93071 33.9491 7.1126 33.7402 7.1126H31.181V3.05039H33.7315C33.9404 3.05039 34.0797 3.2063 34.0797 3.42283V6.74016ZM32.1472 12.0669H29.144V23.4827H40.53V20.7803H32.1385V12.0669H32.1472ZM26.5151 8.66299H28.1081V2.96378C28.1081 2.51339 27.9863 2.15827 27.7425 1.89843C27.4901 1.62992 27.1593 1.5 26.7415 1.5H22.0234V8.66299H23.6164V3.05039H26.1756C26.3846 3.05039 26.5151 3.22362 26.5151 3.41417V8.66299ZM20.178 8.26457C20.4217 8.00472 20.5523 7.64094 20.5523 7.19921V1.5H18.9593V6.74882C18.9593 6.94803 18.82 7.1126 18.6198 7.1126H16.0605V1.5H14.4676V8.66299H19.1856C19.6034 8.66299 19.9429 8.53307 20.1867 8.26457M14.2847 14.6827V20.9189C14.2847 22.3307 15.3554 23.474 16.6786 23.474H25.0092C26.3323 23.474 27.403 22.3307 27.403 20.9189V16.2764H18.6198V19.0047H24.6958C24.6958 19.0047 25.1311 20.8496 23.1202 20.7543H18.4631C17.7754 20.7543 17.227 20.1567 17.227 19.4291V16.1984C17.227 15.4622 17.7841 14.8732 18.4631 14.8732H27.3856V12.1449H23.7644H16.6699C15.3467 12.1449 14.276 13.2882 14.276 14.7M11.0552 6.19449L13.8234 1.5H11.9344L10.2631 4.33228L8.59174 1.5H6.71148L9.47094 6.17717V8.65433H11.0639V6.17717L11.0552 6.19449ZM4.48303 8.67165H6.07602V1.5H4.48303V4.22835H1.593V1.5H0V8.66299H1.593V5.7874H4.49173V8.66299L4.48303 8.67165Z" fill="white"/>
</g>
<line x1="100.5" y1="0.5" x2="100.5" y2="24.5" stroke="white" stroke-opacity="0.2"/>
<path d="M111.26 14.046V1.428H113.672V14.046H111.26ZM124.461 14.046H122.859L119.547 5.514V14.046H117.279V1.428H120.033L123.669 10.464L127.287 1.428H130.041V14.046H127.755V5.514L124.461 14.046ZM133.635 1.428H137.559C138.855 1.428 139.863 1.59 140.583 1.914C141.051 2.118 141.459 2.394 141.807 2.742C142.503 3.498 142.851 4.428 142.851 5.532C142.851 6.612 142.503 7.53 141.807 8.286C141.459 8.634 141.051 8.91 140.583 9.114C139.887 9.402 138.945 9.546 137.757 9.546H136.047V14.046H133.635V1.428ZM136.047 7.386H138.117C138.873 7.386 139.461 7.2 139.881 6.828C140.241 6.492 140.421 6.06 140.421 5.532C140.421 4.968 140.241 4.518 139.881 4.182C139.461 3.786 138.873 3.588 138.117 3.588H136.047V7.386Z" fill="white"/>
<path d="M111.837 23.316V17.421H112.629V23.316H111.837ZM114.073 20.706C114.073 20.148 114.241 19.728 114.577 19.446C114.919 19.158 115.378 19.014 115.954 19.014C116.524 19.014 116.977 19.167 117.313 19.473C117.655 19.779 117.826 20.187 117.826 20.697V23.316H117.034V20.697C117.034 20.025 116.674 19.689 115.954 19.689C115.228 19.689 114.865 20.025 114.865 20.697V23.316H114.073V20.706ZM120.281 22.092C120.281 22.356 120.341 22.536 120.461 22.632C120.593 22.74 120.752 22.794 120.938 22.794H121.568V23.433H120.83C120.374 23.433 120.041 23.328 119.831 23.118C119.615 22.902 119.507 22.569 119.507 22.119V19.752H118.679V19.122H119.507V17.988L120.281 17.745V19.122H121.361V19.752H120.281V22.092ZM122.944 20.976H125.167C125.161 20.55 125.059 20.223 124.861 19.995C124.669 19.761 124.399 19.644 124.051 19.644C123.727 19.644 123.466 19.758 123.268 19.986C123.07 20.214 122.962 20.544 122.944 20.976ZM122.926 21.579C122.962 21.963 123.103 22.257 123.349 22.461C123.595 22.665 123.907 22.776 124.285 22.794C124.747 22.818 125.227 22.773 125.725 22.659V23.28C125.269 23.406 124.789 23.466 124.285 23.46C123.655 23.454 123.142 23.262 122.746 22.884C122.35 22.506 122.152 21.954 122.152 21.228C122.152 20.544 122.332 20.001 122.692 19.599C123.052 19.197 123.505 18.996 124.051 18.996C124.615 18.996 125.071 19.2 125.419 19.608C125.773 20.01 125.95 20.529 125.95 21.165V21.579H122.926ZM128.814 22.641C129.216 22.641 129.582 22.425 129.912 21.993V20.256C129.588 19.86 129.222 19.662 128.814 19.662C128.436 19.662 128.136 19.815 127.914 20.121C127.692 20.421 127.581 20.778 127.581 21.192C127.581 21.6 127.689 21.945 127.905 22.227C128.127 22.503 128.43 22.641 128.814 22.641ZM129.912 23.055V22.758C129.534 23.124 129.108 23.307 128.634 23.307C128.112 23.307 127.68 23.13 127.338 22.776C126.966 22.368 126.78 21.837 126.78 21.183C126.78 20.553 126.966 20.016 127.338 19.572C127.662 19.194 128.094 19.005 128.634 19.005C129.156 19.005 129.606 19.203 129.984 19.599V19.122H130.704V22.803C130.704 23.637 130.524 24.213 130.164 24.531C129.78 24.873 129.246 25.053 128.562 25.071C128.1 25.083 127.674 25.047 127.284 24.963V24.324C127.644 24.408 128.055 24.45 128.517 24.45C128.979 24.45 129.327 24.333 129.561 24.099C129.795 23.871 129.912 23.523 129.912 23.055ZM132.109 19.122H132.829V19.815C133.189 19.275 133.651 19.005 134.215 19.005C134.329 19.005 134.419 19.011 134.485 19.023V19.689L134.215 19.68C133.681 19.68 133.243 19.959 132.901 20.517V23.316H132.109V19.122ZM137.921 21.453C137.669 21.387 137.453 21.342 137.273 21.318C137.099 21.294 136.925 21.288 136.751 21.3C136.499 21.312 136.301 21.369 136.157 21.471C135.971 21.609 135.875 21.804 135.869 22.056C135.869 22.308 135.938 22.497 136.076 22.623C136.214 22.749 136.391 22.806 136.607 22.794C137.111 22.77 137.549 22.569 137.921 22.191V21.453ZM137.993 22.83C137.519 23.232 137.018 23.433 136.49 23.433C136.046 23.433 135.698 23.301 135.446 23.037C135.2 22.773 135.077 22.449 135.077 22.065C135.077 21.657 135.23 21.321 135.536 21.057C135.824 20.817 136.202 20.691 136.67 20.679C137.138 20.667 137.555 20.724 137.921 20.85V20.661C137.921 20.031 137.543 19.698 136.787 19.662C136.355 19.644 135.959 19.68 135.599 19.77V19.122C135.995 19.05 136.418 19.014 136.868 19.014C137.414 19.014 137.855 19.155 138.191 19.437C138.533 19.725 138.707 20.151 138.713 20.715V23.316H137.993V22.83ZM141.134 22.092C141.134 22.356 141.194 22.536 141.314 22.632C141.446 22.74 141.605 22.794 141.791 22.794H142.421V23.433H141.683C141.227 23.433 140.894 23.328 140.684 23.118C140.468 22.902 140.36 22.569 140.36 22.119V19.752H139.532V19.122H140.36V17.988L141.134 17.745V19.122H142.214V19.752H141.134V22.092ZM143.797 20.976H146.02C146.014 20.55 145.912 20.223 145.714 19.995C145.522 19.761 145.252 19.644 144.904 19.644C144.58 19.644 144.319 19.758 144.121 19.986C143.923 20.214 143.815 20.544 143.797 20.976ZM143.779 21.579C143.815 21.963 143.956 22.257 144.202 22.461C144.448 22.665 144.76 22.776 145.138 22.794C145.6 22.818 146.08 22.773 146.578 22.659V23.28C146.122 23.406 145.642 23.466 145.138 23.46C144.508 23.454 143.995 23.262 143.599 22.884C143.203 22.506 143.005 21.954 143.005 21.228C143.005 20.544 143.185 20.001 143.545 19.599C143.905 19.197 144.358 18.996 144.904 18.996C145.468 18.996 145.924 19.2 146.272 19.608C146.626 20.01 146.803 20.529 146.803 21.165V21.579H143.779ZM149.658 19.671C149.256 19.671 148.95 19.818 148.74 20.112C148.53 20.4 148.425 20.772 148.425 21.228C148.425 21.678 148.53 22.044 148.74 22.326C148.944 22.614 149.244 22.761 149.64 22.767H149.658H149.631H149.64C150.084 22.767 150.462 22.548 150.774 22.11V20.274C150.414 19.872 150.045 19.671 149.667 19.671H149.658ZM149.487 23.433C148.947 23.433 148.503 23.238 148.155 22.848C147.807 22.458 147.633 21.918 147.633 21.228C147.633 20.532 147.81 19.989 148.164 19.599C148.524 19.203 148.965 19.005 149.487 19.005C149.961 19.005 150.39 19.173 150.774 19.509V17.304H151.566V23.316H150.846V22.848C150.474 23.238 150.021 23.433 149.487 23.433ZM156.299 22.65H159.305V23.316H155.507V17.421H159.242V18.087H156.299V19.977H158.963V20.634H156.299V22.65ZM163.177 20.85C163.177 20.07 162.85 19.68 162.196 19.68C161.542 19.68 161.215 20.07 161.215 20.85V23.316H160.45V20.841C160.45 20.247 160.603 19.794 160.909 19.482C161.215 19.164 161.638 19.005 162.178 19.005C162.718 19.005 163.147 19.182 163.465 19.536C163.501 19.572 163.534 19.611 163.564 19.653C163.594 19.611 163.627 19.572 163.663 19.536C163.981 19.182 164.407 19.005 164.941 19.005C165.487 19.005 165.91 19.164 166.21 19.482C166.516 19.8 166.669 20.253 166.669 20.841V23.316H165.904V20.85C165.904 20.07 165.577 19.68 164.923 19.68C164.269 19.68 163.942 20.07 163.942 20.85V23.316H163.177V20.85ZM169.983 22.767C170.385 22.767 170.691 22.623 170.901 22.335C171.111 22.041 171.216 21.666 171.216 21.21C171.216 20.76 171.111 20.394 170.901 20.112C170.697 19.824 170.397 19.677 170.001 19.671H169.983H170.01H170.001C169.557 19.671 169.179 19.89 168.867 20.328V22.164C169.227 22.566 169.596 22.767 169.974 22.767H169.983ZM170.154 19.005C170.694 19.005 171.138 19.2 171.486 19.59C171.834 19.98 172.008 20.52 172.008 21.21C172.008 21.906 171.828 22.452 171.468 22.848C171.114 23.238 170.676 23.433 170.154 23.433C169.68 23.433 169.251 23.265 168.867 22.929V25.062H168.075V19.122H168.795V19.617C169.191 19.209 169.644 19.005 170.154 19.005ZM173.125 23.316V17.304H173.917V23.316H173.125ZM179.494 21.237C179.494 21.879 179.275 22.41 178.837 22.83C178.405 23.244 177.88 23.451 177.262 23.451C176.662 23.451 176.14 23.244 175.696 22.83C175.252 22.416 175.03 21.885 175.03 21.237C175.03 20.577 175.246 20.04 175.678 19.626C176.116 19.212 176.644 19.005 177.262 19.005C177.88 19.005 178.405 19.215 178.837 19.635C179.275 20.055 179.494 20.589 179.494 21.237ZM175.813 21.237C175.813 21.699 175.948 22.074 176.218 22.362C176.488 22.65 176.836 22.794 177.262 22.794C177.688 22.794 178.036 22.65 178.306 22.362C178.576 22.074 178.711 21.699 178.711 21.237C178.711 20.769 178.576 20.391 178.306 20.103C178.036 19.809 177.688 19.662 177.262 19.662C176.836 19.662 176.488 19.809 176.218 20.103C175.948 20.391 175.813 20.769 175.813 21.237ZM180.091 19.122H180.883L182.098 22.335L183.43 19.122H184.213L181.72 25.062H180.946L181.711 23.244L180.091 19.122ZM185.613 20.976H187.836C187.83 20.55 187.728 20.223 187.53 19.995C187.338 19.761 187.068 19.644 186.72 19.644C186.396 19.644 186.135 19.758 185.937 19.986C185.739 20.214 185.631 20.544 185.613 20.976ZM185.595 21.579C185.631 21.963 185.772 22.257 186.018 22.461C186.264 22.665 186.576 22.776 186.954 22.794C187.416 22.818 187.896 22.773 188.394 22.659V23.28C187.938 23.406 187.458 23.466 186.954 23.46C186.324 23.454 185.811 23.262 185.415 22.884C185.019 22.506 184.821 21.954 184.821 21.228C184.821 20.544 185.001 20.001 185.361 19.599C185.721 19.197 186.174 18.996 186.72 18.996C187.284 18.996 187.74 19.2 188.088 19.608C188.442 20.01 188.619 20.529 188.619 21.165V21.579H185.595ZM190.241 20.976H192.464C192.458 20.55 192.356 20.223 192.158 19.995C191.966 19.761 191.696 19.644 191.348 19.644C191.024 19.644 190.763 19.758 190.565 19.986C190.367 20.214 190.259 20.544 190.241 20.976ZM190.223 21.579C190.259 21.963 190.4 22.257 190.646 22.461C190.892 22.665 191.204 22.776 191.582 22.794C192.044 22.818 192.524 22.773 193.022 22.659V23.28C192.566 23.406 192.086 23.466 191.582 23.46C190.952 23.454 190.439 23.262 190.043 22.884C189.647 22.506 189.449 21.954 189.449 21.228C189.449 20.544 189.629 20.001 189.989 19.599C190.349 19.197 190.802 18.996 191.348 18.996C191.912 18.996 192.368 19.2 192.716 19.608C193.07 20.01 193.247 20.529 193.247 21.165V21.579H190.223ZM196.901 17.421H198.701C199.295 17.421 199.757 17.493 200.087 17.637C200.303 17.727 200.489 17.856 200.645 18.024C200.945 18.36 201.095 18.771 201.095 19.257C201.095 19.737 200.945 20.145 200.645 20.481C200.489 20.649 200.303 20.778 200.087 20.868C199.769 21 199.283 21.066 198.629 21.066H197.693V23.316H196.901V17.421ZM197.693 20.4H198.917C199.361 20.4 199.703 20.289 199.943 20.067C200.177 19.857 200.294 19.587 200.294 19.257C200.294 18.915 200.177 18.639 199.943 18.429C199.703 18.201 199.361 18.087 198.917 18.087H197.693V20.4ZM205.976 21.237C205.976 21.879 205.757 22.41 205.319 22.83C204.887 23.244 204.362 23.451 203.744 23.451C203.144 23.451 202.622 23.244 202.178 22.83C201.734 22.416 201.512 21.885 201.512 21.237C201.512 20.577 201.728 20.04 202.16 19.626C202.598 19.212 203.126 19.005 203.744 19.005C204.362 19.005 204.887 19.215 205.319 19.635C205.757 20.055 205.976 20.589 205.976 21.237ZM202.295 21.237C202.295 21.699 202.43 22.074 202.7 22.362C202.97 22.65 203.318 22.794 203.744 22.794C204.17 22.794 204.518 22.65 204.788 22.362C205.058 22.074 205.193 21.699 205.193 21.237C205.193 20.769 205.058 20.391 204.788 20.103C204.518 19.809 204.17 19.662 203.744 19.662C203.318 19.662 202.97 19.809 202.7 20.103C202.43 20.391 202.295 20.769 202.295 21.237ZM207.096 19.122H207.816V19.815C208.176 19.275 208.638 19.005 209.202 19.005C209.316 19.005 209.406 19.011 209.472 19.023V19.689L209.202 19.68C208.668 19.68 208.23 19.959 207.888 20.517V23.316H207.096V19.122ZM211.414 22.092C211.414 22.356 211.474 22.536 211.594 22.632C211.726 22.74 211.885 22.794 212.071 22.794H212.701V23.433H211.963C211.507 23.433 211.174 23.328 210.964 23.118C210.748 22.902 210.64 22.569 210.64 22.119V19.752H209.812V19.122H210.64V17.988L211.414 17.745V19.122H212.494V19.752H211.414V22.092ZM216.13 21.453C215.878 21.387 215.662 21.342 215.482 21.318C215.308 21.294 215.134 21.288 214.96 21.3C214.708 21.312 214.51 21.369 214.366 21.471C214.18 21.609 214.084 21.804 214.078 22.056C214.078 22.308 214.147 22.497 214.285 22.623C214.423 22.749 214.6 22.806 214.816 22.794C215.32 22.77 215.758 22.569 216.13 22.191V21.453ZM216.202 22.83C215.728 23.232 215.227 23.433 214.699 23.433C214.255 23.433 213.907 23.301 213.655 23.037C213.409 22.773 213.286 22.449 213.286 22.065C213.286 21.657 213.439 21.321 213.745 21.057C214.033 20.817 214.411 20.691 214.879 20.679C215.347 20.667 215.764 20.724 216.13 20.85V20.661C216.13 20.031 215.752 19.698 214.996 19.662C214.564 19.644 214.168 19.68 213.808 19.77V19.122C214.204 19.05 214.627 19.014 215.077 19.014C215.623 19.014 216.064 19.155 216.4 19.437C216.742 19.725 216.916 20.151 216.922 20.715V23.316H216.202V22.83ZM218.28 23.316V17.304H219.072V23.316H218.28Z" fill="white"/>
<defs>
<clipPath id="clip0_47_1865">
<rect width="90" height="22" fill="white" transform="translate(0 1.5)"/>
</clipPath>
</defs>
</svg>
