<svg width="96" height="23" viewBox="0 0 96 23" fill="none" xmlns="http://www.w3.org/2000/svg">
<g clip-path="url(#clip0_152_23945)">
<path d="M85.647 15.765V13.972H95.7307V11.0654H84.9599C83.5485 11.0654 82.4064 12.2606 82.4064 13.7366V15.611C82.4064 17.087 83.5485 18.2823 84.9599 18.2823H92.7595V20.0843H82.8521V22.9909H93.4466C94.8486 22.9909 96 21.7957 96 20.3197V18.4543C96 16.9783 94.8579 15.7831 93.4466 15.7831L85.647 15.765ZM77.151 22.9819H80.3544V11.0472H77.151V22.9819ZM69.3792 22.9909L75.981 10.9839H72.4248L67.5965 19.7673L62.7682 10.9839H59.2119L65.8137 22.9909H69.3885H69.3792ZM58.7941 20.2925V13.7728C58.7941 12.2968 57.652 11.1016 56.2406 11.1016H46.844C45.4326 11.1016 44.2906 12.2968 44.2906 13.7728V20.2925C44.2906 21.7685 45.4326 22.9638 46.844 22.9638H56.2406C57.652 22.9638 58.7941 21.7685 58.7941 20.2925ZM55.6557 18.726C55.6557 19.4957 55.0614 20.1114 54.3279 20.1114H48.7475C48.0139 20.1114 47.4197 19.4866 47.4197 18.726V15.3484C47.4197 14.5878 48.0139 13.963 48.7475 13.963H54.3279C55.0614 13.963 55.6557 14.5878 55.6557 15.3484V18.726ZM47.7075 7.47953H49.4067V0H47.7075V7.48858V7.47953ZM44.3463 7.47953H46.0455V0H41.0129C40.5672 0 40.205 0.135827 39.9451 0.416535C39.6851 0.688189 39.5551 1.0685 39.5551 1.53031V7.48858H41.2543V5.17047H44.3463V7.48858V7.47953ZM44.3463 3.54055H41.2543V1.99213C41.2543 1.81102 41.3936 1.61181 41.6164 1.61181H44.3463V3.54055ZM37.6609 7.06299C37.9209 6.79134 38.0509 6.41102 38.0509 5.94921V1.53031C38.0509 1.05945 37.9209 0.688189 37.6609 0.416535C37.4009 0.135827 37.0388 0 36.5931 0H31.5605V7.48858H36.5931C37.0388 7.48858 37.4009 7.35276 37.6609 7.07205M36.3517 5.47835C36.3517 5.67756 36.2124 5.86772 35.9896 5.86772H33.2597V1.62087H35.9803C36.2031 1.62087 36.3517 1.78386 36.3517 2.01024V5.47835ZM34.2904 11.0472H31.087V22.9819H43.232V20.1567H34.2811V11.0472H34.2904ZM28.2828 7.48858H29.982V1.53031C29.982 1.05945 29.852 0.688189 29.592 0.416535C29.3228 0.135827 28.9699 0 28.5242 0H23.4916V7.48858H25.1908V1.62087H27.9207C28.1435 1.62087 28.2828 1.80197 28.2828 2.00118V7.48858ZM21.5232 7.07205C21.7832 6.80039 21.9224 6.42008 21.9224 5.95827V0H20.2232V5.4874C20.2232 5.69567 20.0747 5.86772 19.8611 5.86772H17.1313V0H15.4321V7.48858H20.4646C20.9103 7.48858 21.2725 7.35276 21.5324 7.07205M15.2371 13.7819V20.3016C15.2371 21.7776 16.3791 22.9728 17.7905 22.9728H26.6765C28.0878 22.9728 29.2299 21.7776 29.2299 20.3016V15.448H19.8611V18.3004H26.3422C26.3422 18.3004 26.8065 20.2291 24.6616 20.1295H19.694C18.9604 20.1295 18.3755 19.5047 18.3755 18.7441V15.3665C18.3755 14.5968 18.9697 13.9811 19.694 13.9811H29.2113V11.1287H25.3487H17.7812C16.3699 11.1287 15.2278 12.324 15.2278 13.8M11.7922 4.90787L14.7449 0H12.7301L10.9473 2.96102L9.16452 0H7.15891L10.1023 4.88976V7.47953H11.8015V4.88976L11.7922 4.90787ZM4.78189 7.49764H6.48109V0H4.78189V2.85236H1.6992V0H0V7.48858H1.6992V4.48228H4.79118V7.48858L4.78189 7.49764Z" fill="#002D74"/>
</g>
<defs>
<clipPath id="clip0_152_23945">
<rect width="96" height="23" fill="white"/>
</clipPath>
</defs>
</svg>
