<svg width="22" height="22" viewBox="0 0 22 22" fill="none" xmlns="http://www.w3.org/2000/svg">
<path fill-rule="evenodd" clip-rule="evenodd" d="M4.28604 5.12463C4.28604 4.22766 5.06178 3.5 6.01945 3.5H11.5C12.4588 3.5 13.2346 4.22766 13.2346 5.12463V8.86258C12.788 9.12922 12.4079 9.4827 12.12 9.89903C11.8321 10.3154 11.6432 10.7848 11.5661 11.2755C11.4889 11.7662 11.5253 12.2668 11.6728 12.7432C11.8204 13.2195 12.0755 13.6606 12.4211 14.0365C11.6841 14.4773 11.0776 15.0849 10.6577 15.8032C10.2377 16.5215 10.0178 17.3274 10.0183 18.1464C10.0183 18.2675 10.0309 18.3853 10.0572 18.5H4.85812C4.83982 18.5 4.82151 18.5 4.8032 18.4979H3.85812C3.63054 18.4979 3.41227 18.4132 3.25134 18.2624C3.09041 18.1117 3 17.9073 3 17.6941C3 17.4809 3.09041 17.2765 3.25134 17.1258C3.41227 16.975 3.63054 16.8904 3.85812 16.8904H4.28604V9.52165H9.25973C9.44938 9.52165 9.63127 9.45108 9.76538 9.32547C9.89949 9.19986 9.97483 9.0295 9.97483 8.85186C9.97483 8.67422 9.89949 8.50386 9.76538 8.37825C9.63127 8.25264 9.44938 8.18208 9.25973 8.18208H4.28604V6.73534H7.67277C7.86243 6.73534 8.04432 6.66477 8.17842 6.53916C8.31253 6.41355 8.38787 6.24319 8.38787 6.06555C8.38787 5.88791 8.31253 5.71755 8.17842 5.59194C8.04432 5.46633 7.86243 5.39576 7.67277 5.39576H4.28604V5.12463ZM17.4897 11.7796C17.4897 12.3424 17.251 12.8821 16.8262 13.28C16.4013 13.678 15.8251 13.9015 15.2243 13.9015C14.6234 13.9015 14.0472 13.678 13.6223 13.28C13.1975 12.8821 12.9588 12.3424 12.9588 11.7796C12.9588 11.2169 13.1975 10.6772 13.6223 10.2792C14.0472 9.8813 14.6234 9.65775 15.2243 9.65775C15.8251 9.65775 16.4013 9.8813 16.8262 10.2792C17.251 10.6772 17.4897 11.2169 17.4897 11.7796ZM15.2243 14.6088C14.2229 14.6088 13.2625 14.9814 12.5544 15.6446C11.8463 16.3078 11.4485 17.2074 11.4485 18.1453C11.4484 18.1918 11.458 18.2379 11.4769 18.2809C11.4958 18.324 11.5236 18.3631 11.5587 18.396C11.5938 18.429 11.6354 18.4551 11.6813 18.473C11.7272 18.4908 11.7764 18.5 11.8261 18.5H18.6224C18.7226 18.5 18.8186 18.4627 18.8894 18.3964C18.9602 18.3301 19 18.2401 19 18.1464C19 17.2084 18.6022 16.3089 17.8941 15.6457C17.186 14.9825 16.2256 14.6088 15.2243 14.6088Z" fill="white"/>
</svg>
