<svg width="22" height="22" viewBox="0 0 22 22" fill="none" xmlns="http://www.w3.org/2000/svg">
<circle cx="7.00134" cy="6.00134" r="3.00134" fill="white"/>
<mask id="path-2-inside-1_296_13908" fill="white">
<path fill-rule="evenodd" clip-rule="evenodd" d="M7.23831 10.975C9.85439 10.975 11.9751 8.85427 11.9751 6.23818C11.9751 5.62505 11.8587 5.03913 11.6466 4.50134H16.5015C17.606 4.50134 18.5015 5.39677 18.5015 6.50134V16.5013C18.5015 17.6059 17.606 18.5013 16.5015 18.5013H6.50146C5.3969 18.5013 4.50146 17.6059 4.50146 16.5013V10.1048C5.27435 10.6529 6.21871 10.975 7.23831 10.975Z"/>
</mask>
<path fill-rule="evenodd" clip-rule="evenodd" d="M7.23831 10.975C9.85439 10.975 11.9751 8.85427 11.9751 6.23818C11.9751 5.62505 11.8587 5.03913 11.6466 4.50134H16.5015C17.606 4.50134 18.5015 5.39677 18.5015 6.50134V16.5013C18.5015 17.6059 17.606 18.5013 16.5015 18.5013H6.50146C5.3969 18.5013 4.50146 17.6059 4.50146 16.5013V10.1048C5.27435 10.6529 6.21871 10.975 7.23831 10.975Z" fill="white"/>
<path d="M11.6466 4.50134V2.50134H8.70811L9.78602 5.23499L11.6466 4.50134ZM4.50146 10.1048L5.65832 8.47337L2.50146 6.23487V10.1048H4.50146ZM9.97515 6.23818C9.97515 7.7497 8.74982 8.97503 7.23831 8.97503V12.975C10.959 12.975 13.9751 9.95884 13.9751 6.23818H9.97515ZM9.78602 5.23499C9.90746 5.54298 9.97515 5.88026 9.97515 6.23818H13.9751C13.9751 5.36984 13.8099 4.53529 13.5072 3.76769L9.78602 5.23499ZM11.6466 6.50134H16.5015V2.50134H11.6466V6.50134ZM16.5015 6.50134H20.5015C20.5015 4.2922 18.7106 2.50134 16.5015 2.50134V6.50134ZM16.5015 6.50134V16.5013H20.5015V6.50134H16.5015ZM16.5015 16.5013V20.5013C18.7106 20.5013 20.5015 18.7105 20.5015 16.5013H16.5015ZM16.5015 16.5013H6.50146V20.5013H16.5015V16.5013ZM6.50146 16.5013H6.50146H2.50146C2.50146 18.7105 4.29233 20.5013 6.50146 20.5013V16.5013ZM6.50146 16.5013V10.1048H2.50146V16.5013H6.50146ZM7.23831 8.97503C6.64663 8.97503 6.10422 8.78955 5.65832 8.47337L3.34461 11.7363C4.44449 12.5162 5.7908 12.975 7.23831 12.975V8.97503Z" fill="white" mask="url(#path-2-inside-1_296_13908)"/>
</svg>
