<svg width="22" height="22" viewBox="0 0 22 22" fill="none" xmlns="http://www.w3.org/2000/svg">
<path fill-rule="evenodd" clip-rule="evenodd" d="M11.8 5C11.9959 5.00002 12.1851 5.06747 12.3315 5.18954C12.4779 5.31161 12.5715 5.47981 12.5944 5.66225L12.6 5.75C12.6002 5.94116 12.6783 6.12502 12.8183 6.26403C12.9583 6.40303 13.1496 6.48668 13.3531 6.49788C13.5567 6.50908 13.7571 6.44699 13.9135 6.3243C14.0698 6.20161 14.1703 6.02757 14.1944 5.83775L14.2 5.75C14.2 5.55109 14.2843 5.36032 14.4343 5.21967C14.5843 5.07902 14.7878 5 15 5H16.6C17.2365 5 17.847 5.23705 18.2971 5.65901C18.7471 6.08097 19 6.65326 19 7.25V14.75C19 15.3467 18.7471 15.919 18.2971 16.341C17.847 16.7629 17.2365 17 16.6 17H15C14.8041 17 14.6149 16.9325 14.4685 16.8105C14.3221 16.6884 14.2285 16.5202 14.2056 16.3378L14.2 16.25C14.1998 16.0588 14.1217 15.875 13.9817 15.736C13.8417 15.597 13.6504 15.5133 13.4469 15.5021C13.2433 15.4909 13.0429 15.553 12.8865 15.6757C12.7302 15.7984 12.6297 15.9724 12.6056 16.1622L12.6 16.25C12.6 16.4489 12.5157 16.6397 12.3657 16.7803C12.2157 16.921 12.0122 17 11.8 17H5.4C4.76348 17 4.15303 16.7629 3.70294 16.341C3.25286 15.919 3 15.3467 3 14.75V7.25C3 6.65326 3.25286 6.08097 3.70294 5.65901C4.15303 5.23705 4.76348 5 5.4 5H11.8ZM13.4 11.75C13.1878 11.75 12.9843 11.829 12.8343 11.9697C12.6843 12.1103 12.6 12.3011 12.6 12.5V13.25C12.6 13.4489 12.6843 13.6397 12.8343 13.7803C12.9843 13.921 13.1878 14 13.4 14C13.6122 14 13.8157 13.921 13.9657 13.7803C14.1157 13.6397 14.2 13.4489 14.2 13.25V12.5C14.2 12.3011 14.1157 12.1103 13.9657 11.9697C13.8157 11.829 13.6122 11.75 13.4 11.75ZM13.4 8C13.2041 8.00002 13.0149 8.06747 12.8685 8.18954C12.7221 8.31161 12.6285 8.47981 12.6056 8.66225L12.6 8.75V9.5C12.6002 9.69116 12.6783 9.87502 12.8183 10.014C12.9583 10.153 13.1496 10.2367 13.3531 10.2479C13.5567 10.2591 13.7571 10.197 13.9135 10.0743C14.0698 9.95161 14.1703 9.77757 14.1944 9.58775L14.2 9.5V8.75C14.2 8.55109 14.1157 8.36032 13.9657 8.21967C13.8157 8.07902 13.6122 8 13.4 8Z" fill="white"/>
</svg>
