<svg width="32" height="32" viewBox="0 0 32 32" fill="none" xmlns="http://www.w3.org/2000/svg">
<rect width="32" height="32" rx="8" fill="#52C0FE"/>
<path d="M16 8C14.9391 8 13.9217 8.42143 13.1716 9.17157C12.4214 9.92172 12 10.9391 12 12C12 13.0609 12.4214 14.0783 13.1716 14.8284C13.9217 15.5786 14.9391 16 16 16C17.0609 16 18.0783 15.5786 18.8284 14.8284C19.5786 14.0783 20 13.0609 20 12C20 10.9391 19.5786 9.92172 18.8284 9.17157C18.0783 8.42143 17.0609 8 16 8ZM11.009 17C10.7456 16.9989 10.4847 17.0499 10.241 17.1499C9.99739 17.2499 9.7759 17.3971 9.58926 17.5829C9.40261 17.7687 9.25448 17.9895 9.15337 18.2327C9.05225 18.4759 9.00013 18.7366 9 19C9 20.691 9.833 21.966 11.135 22.797C12.417 23.614 14.145 24 16 24C17.855 24 19.583 23.614 20.865 22.797C22.167 21.967 23 20.69 23 19C23 18.4696 22.7893 17.9609 22.4142 17.5858C22.0391 17.2107 21.5304 17 21 17H11.009Z" fill="white"/>
</svg>
