<svg width="32" height="32" viewBox="0 0 32 32" fill="none" xmlns="http://www.w3.org/2000/svg">
<rect width="32" height="32" rx="8" fill="#B3D947"/>
<g clip-path="url(#clip0_684_2173)">
<path d="M16.0029 13.8216C15.4736 13.8216 14.978 14.029 14.6028 14.4081C14.2293 14.7872 14.0222 15.2879 14.0222 15.8226C14.0222 16.3573 14.2293 16.858 14.6028 17.2371C14.978 17.6144 15.4736 17.8237 16.0029 17.8237C16.5321 17.8237 17.0277 17.6144 17.403 17.2371C17.7764 16.858 17.9835 16.3573 17.9835 15.8226C17.9835 15.2879 17.7764 14.7872 17.403 14.4081C17.2197 14.2215 17.0015 14.0736 16.7612 13.9729C16.5208 13.8722 16.2631 13.8208 16.0029 13.8216ZM23.3006 18.0329L22.143 17.0333C22.1979 16.6935 22.2262 16.3466 22.2262 16.0014C22.2262 15.6563 22.1979 15.3076 22.143 14.9696L23.3006 13.97C23.388 13.8944 23.4506 13.7937 23.48 13.6812C23.5094 13.5688 23.5043 13.45 23.4652 13.3406L23.4493 13.2941C23.1307 12.394 22.6533 11.5598 22.0404 10.8317L22.0085 10.7941C21.9341 10.7057 21.8349 10.6421 21.7239 10.6118C21.613 10.5815 21.4956 10.5858 21.3872 10.6242L19.95 11.141C19.419 10.7011 18.8278 10.3542 18.1871 10.1128L17.9092 8.59459C17.8882 8.48022 17.8333 8.375 17.7517 8.29291C17.6702 8.21082 17.5658 8.15575 17.4525 8.13501L17.4047 8.12607C16.4843 7.95798 15.5144 7.95798 14.594 8.12607L14.5462 8.13501C14.4329 8.15575 14.3285 8.21082 14.247 8.29291C14.1654 8.375 14.1105 8.48022 14.0895 8.59459L13.8098 10.12C13.1752 10.3633 12.5839 10.7094 12.0593 11.1446L10.6115 10.6242C10.5031 10.5855 10.3856 10.581 10.2746 10.6114C10.1636 10.6417 10.0644 10.7054 9.99018 10.7941L9.95832 10.8317C9.34642 11.5605 8.86919 12.3946 8.5494 13.2941L8.53347 13.3406C8.45382 13.5641 8.51931 13.8144 8.69808 13.97L9.86982 14.9804C9.81495 15.3166 9.7884 15.6599 9.7884 15.9997C9.7884 16.343 9.81495 16.6863 9.86982 17.019L8.70162 18.0293C8.61418 18.1049 8.55159 18.2057 8.52219 18.3181C8.49278 18.4305 8.49795 18.5494 8.53701 18.6588L8.55294 18.7053C8.87331 19.6047 9.3459 20.4363 9.96186 21.1677L9.99372 21.2052C10.0682 21.2936 10.1674 21.3572 10.2783 21.3875C10.3892 21.4178 10.5066 21.4135 10.615 21.3751L12.0629 20.8547C12.5903 21.2928 13.178 21.6397 13.8134 21.8794L14.093 23.4047C14.114 23.5191 14.1689 23.6243 14.2505 23.7064C14.3321 23.7885 14.4364 23.8436 14.5497 23.8643L14.5975 23.8733C15.527 24.0422 16.4788 24.0422 17.4083 23.8733L17.4561 23.8643C17.5693 23.8436 17.6737 23.7885 17.7553 23.7064C17.8368 23.6243 17.8917 23.5191 17.9127 23.4047L18.1906 21.8865C18.8313 21.6433 19.4225 21.2982 19.9535 20.8583L21.3908 21.3751C21.4992 21.4138 21.6166 21.4183 21.7276 21.388C21.8386 21.3576 21.9378 21.2939 22.012 21.2052L22.0439 21.1677C22.6599 20.4327 23.1324 19.6047 23.4528 18.7053L23.4687 18.6588C23.5449 18.437 23.4794 18.1885 23.3006 18.0329ZM16.0029 18.9663C14.2842 18.9663 12.8912 17.559 12.8912 15.8226C12.8912 14.0863 14.2842 12.6789 16.0029 12.6789C17.7216 12.6789 19.1145 14.0863 19.1145 15.8226C19.1145 17.559 17.7216 18.9663 16.0029 18.9663Z" fill="white"/>
</g>
<defs>
<clipPath id="clip0_684_2173">
<rect width="16" height="16" fill="white" transform="translate(8 8)"/>
</clipPath>
</defs>
</svg>
