<svg width="32" height="32" viewBox="0 0 32 32" fill="none" xmlns="http://www.w3.org/2000/svg">
<rect width="32" height="32" rx="8" fill="#6ECEC8"/>
<path fill-rule="evenodd" clip-rule="evenodd" d="M9.91156 8.9376C9 9.8744 9 11.3832 9 14.4V17.6C9 20.6168 9 22.1256 9.91156 23.0624C10.8223 24 12.2892 24 15.2222 24H16.7778C19.7108 24 21.1777 24 22.0884 23.0624C23 22.1256 23 20.6168 23 17.6V14.4C23 11.3832 23 9.8744 22.0884 8.9376C21.1777 8 19.7108 8 16.7778 8H15.2222C12.2892 8 10.8223 8 9.91156 8.9376ZM12.8889 13.8C12.7342 13.8 12.5858 13.8632 12.4764 13.9757C12.367 14.0883 12.3056 14.2409 12.3056 14.4C12.3056 14.5591 12.367 14.7117 12.4764 14.8243C12.5858 14.9368 12.7342 15 12.8889 15H19.1111C19.2658 15 19.4142 14.9368 19.5236 14.8243C19.633 14.7117 19.6944 14.5591 19.6944 14.4C19.6944 14.2409 19.633 14.0883 19.5236 13.9757C19.4142 13.8632 19.2658 13.8 19.1111 13.8H12.8889ZM12.8889 17C12.7342 17 12.5858 17.0632 12.4764 17.1757C12.367 17.2883 12.3056 17.4409 12.3056 17.6C12.3056 17.7591 12.367 17.9117 12.4764 18.0243C12.5858 18.1368 12.7342 18.2 12.8889 18.2H16.7778C16.9325 18.2 17.0809 18.1368 17.1903 18.0243C17.2997 17.9117 17.3611 17.7591 17.3611 17.6C17.3611 17.4409 17.2997 17.2883 17.1903 17.1757C17.0809 17.0632 16.9325 17 16.7778 17H12.8889Z" fill="white"/>
</svg>
