<svg width="32" height="32" viewBox="0 0 32 32" fill="none" xmlns="http://www.w3.org/2000/svg">
<rect width="32" height="32" rx="8" fill="#FFD749"/>
<path d="M15.7899 8.04363C15.8563 8.01485 15.9278 8 16 8C16.0722 8 16.1437 8.01485 16.2101 8.04363L23.4667 11.1896L16 14.4262L8.53333 11.1896L15.7899 8.04363ZM8 12.1325V20.4074C8 20.6232 8.128 20.8174 8.3232 20.9037L15.4667 24V15.3691L8 12.1325ZM16.5333 15.3691L24 12.1325V20.4074C24.0001 20.513 23.9695 20.6164 23.9121 20.7046C23.8546 20.7928 23.7728 20.862 23.6768 20.9037L16.5333 24V15.3691Z" fill="white"/>
</svg>
