<svg width="32" height="32" viewBox="0 0 32 32" fill="none" xmlns="http://www.w3.org/2000/svg">
<rect width="32" height="32" rx="8" fill="#F36E6E"/>
<path fill-rule="evenodd" clip-rule="evenodd" d="M9.28604 9.62463C9.28604 8.72766 10.0618 8 11.0195 8H16.5C17.4588 8 18.2346 8.72766 18.2346 9.62463V13.3626C17.788 13.6292 17.4079 13.9827 17.12 14.399C16.8321 14.8154 16.6432 15.2848 16.5661 15.7755C16.4889 16.2662 16.5253 16.7668 16.6728 17.2432C16.8204 17.7195 17.0755 18.1606 17.4211 18.5365C16.6841 18.9773 16.0776 19.5849 15.6577 20.3032C15.2377 21.0215 15.0178 21.8274 15.0183 22.6464C15.0183 22.7675 15.0309 22.8853 15.0572 23H9.85812C9.83982 23 9.82151 23 9.8032 22.9979H8.85812C8.63054 22.9979 8.41227 22.9132 8.25134 22.7624C8.09041 22.6117 8 22.4073 8 22.1941C8 21.9809 8.09041 21.7765 8.25134 21.6258C8.41227 21.475 8.63054 21.3904 8.85812 21.3904H9.28604V14.0216H14.2597C14.4494 14.0216 14.6313 13.9511 14.7654 13.8255C14.8995 13.6999 14.9748 13.5295 14.9748 13.3519C14.9748 13.1742 14.8995 13.0039 14.7654 12.8783C14.6313 12.7526 14.4494 12.6821 14.2597 12.6821H9.28604V11.2353H12.6728C12.8624 11.2353 13.0443 11.1648 13.1784 11.0392C13.3125 10.9136 13.3879 10.7432 13.3879 10.5655C13.3879 10.3879 13.3125 10.2175 13.1784 10.0919C13.0443 9.96633 12.8624 9.89576 12.6728 9.89576H9.28604V9.62463ZM22.4897 16.2796C22.4897 16.8424 22.251 17.3821 21.8262 17.78C21.4013 18.178 20.8251 18.4015 20.2243 18.4015C19.6234 18.4015 19.0472 18.178 18.6223 17.78C18.1975 17.3821 17.9588 16.8424 17.9588 16.2796C17.9588 15.7169 18.1975 15.1772 18.6223 14.7792C19.0472 14.3813 19.6234 14.1577 20.2243 14.1577C20.8251 14.1577 21.4013 14.3813 21.8262 14.7792C22.251 15.1772 22.4897 15.7169 22.4897 16.2796ZM20.2243 19.1088C19.2229 19.1088 18.2625 19.4814 17.5544 20.1446C16.8463 20.8078 16.4485 21.7074 16.4485 22.6453C16.4484 22.6918 16.458 22.7379 16.4769 22.7809C16.4958 22.824 16.5236 22.8631 16.5587 22.896C16.5938 22.929 16.6354 22.9551 16.6813 22.973C16.7272 22.9908 16.7764 23 16.8261 23H23.6224C23.7226 23 23.8186 22.9627 23.8894 22.8964C23.9602 22.8301 24 22.7401 24 22.6464C24 21.7084 23.6022 20.8089 22.8941 20.1457C22.186 19.4825 21.2256 19.1088 20.2243 19.1088Z" fill="white"/>
</svg>
