<svg width="32" height="32" viewBox="0 0 32 32" fill="none" xmlns="http://www.w3.org/2000/svg">
<rect width="32" height="32" rx="8" fill="#3697E5"/>
<path d="M8.68019 8C8.49979 8 8.32678 8.07024 8.19922 8.19526C8.07166 8.32029 8 8.48986 8 8.66667C8 8.84348 8.07166 9.01305 8.19922 9.13807C8.32678 9.2631 8.49979 9.33333 8.68019 9.33333H9.01485C9.16255 9.33358 9.30615 9.38095 9.42395 9.46827C9.54176 9.55558 9.62736 9.67811 9.66783 9.81733L11.8254 17.2173C11.9474 17.6349 12.2049 18.0023 12.5588 18.2637C12.9127 18.5252 13.3439 18.6667 13.7871 18.6667H20.0027C20.4106 18.6667 20.8092 18.547 21.1469 18.3229C21.4847 18.0987 21.7462 17.7805 21.8977 17.4093L23.9029 12.4947C23.9853 12.2924 24.016 12.0735 23.9922 11.857C23.9683 11.6405 23.8907 11.433 23.7662 11.2526C23.6416 11.0723 23.4739 10.9246 23.2777 10.8224C23.0814 10.7203 22.8627 10.6668 22.6405 10.6667H11.3302L10.9752 9.45067C10.8534 9.03303 10.5963 8.66558 10.2427 8.40386C9.88898 8.14214 9.458 8.00038 9.01485 8H8.68019ZM14.1217 24C14.3897 24 14.6551 23.9483 14.9026 23.8478C15.1502 23.7473 15.3752 23.5999 15.5646 23.4142C15.7541 23.2285 15.9044 23.008 16.007 22.7654C16.1095 22.5227 16.1623 22.2626 16.1623 22C16.1623 21.7374 16.1095 21.4773 16.007 21.2346C15.9044 20.992 15.7541 20.7715 15.5646 20.5858C15.3752 20.4001 15.1502 20.2528 14.9026 20.1522C14.6551 20.0517 14.3897 20 14.1217 20C13.5805 20 13.0615 20.2107 12.6788 20.5858C12.2961 20.9609 12.0812 21.4696 12.0812 22C12.0812 22.5304 12.2961 23.0391 12.6788 23.4142C13.0615 23.7893 13.5805 24 14.1217 24ZM19.5633 24C19.8313 24 20.0966 23.9483 20.3442 23.8478C20.5918 23.7473 20.8167 23.5999 21.0062 23.4142C21.1957 23.2285 21.346 23.008 21.4485 22.7654C21.5511 22.5227 21.6039 22.2626 21.6039 22C21.6039 21.7374 21.5511 21.4773 21.4485 21.2346C21.346 20.992 21.1957 20.7715 21.0062 20.5858C20.8167 20.4001 20.5918 20.2528 20.3442 20.1522C20.0966 20.0517 19.8313 20 19.5633 20C19.0221 20 18.5031 20.2107 18.1204 20.5858C17.7377 20.9609 17.5227 21.4696 17.5227 22C17.5227 22.5304 17.7377 23.0391 18.1204 23.4142C18.5031 23.7893 19.0221 24 19.5633 24Z" fill="white"/>
</svg>
