<svg width="32" height="32" viewBox="0 0 32 32" fill="none" xmlns="http://www.w3.org/2000/svg">
<rect width="32" height="32" rx="8" fill="#50AB78"/>
<path d="M19.2 11.4706H20.8V23H11.2V11.4706H12.8V10.6471C12.8 10.2102 12.9686 9.7913 13.2686 9.48241C13.5687 9.17353 13.9757 9 14.4 9H17.6C18.0243 9 18.4313 9.17353 18.7314 9.48241C19.0314 9.7913 19.2 10.2102 19.2 10.6471V11.4706ZM21.6 11.4706H22.4C22.8243 11.4706 23.2313 11.6441 23.5314 11.953C23.8314 12.2619 24 12.6808 24 13.1176V21.3529C24 21.7898 23.8314 22.2087 23.5314 22.5176C23.2313 22.8265 22.8243 23 22.4 23H21.6V11.4706ZM10.4 11.4706V23H9.6C9.17565 23 8.76869 22.8265 8.46863 22.5176C8.16857 22.2087 8 21.7898 8 21.3529V13.1176C8 12.2118 8.72 11.4706 9.6 11.4706H10.4ZM14.4 10.6471V11.4706H17.6V10.6471H14.4Z" fill="white"/>
</svg>
