<svg width="32" height="32" viewBox="0 0 32 32" fill="none" xmlns="http://www.w3.org/2000/svg">
<rect width="32" height="32" rx="8" fill="#FE9061"/>
<path fill-rule="evenodd" clip-rule="evenodd" d="M16.8 10C16.9959 10 17.1851 10.0675 17.3315 10.1895C17.4779 10.3116 17.5715 10.4798 17.5944 10.6622L17.6 10.75C17.6002 10.9412 17.6783 11.125 17.8183 11.264C17.9583 11.403 18.1496 11.4867 18.3531 11.4979C18.5567 11.5091 18.7571 11.447 18.9135 11.3243C19.0698 11.2016 19.1703 11.0276 19.1944 10.8378L19.2 10.75C19.2 10.5511 19.2843 10.3603 19.4343 10.2197C19.5843 10.079 19.7878 10 20 10H21.6C22.2365 10 22.847 10.2371 23.2971 10.659C23.7471 11.081 24 11.6533 24 12.25V19.75C24 20.3467 23.7471 20.919 23.2971 21.341C22.847 21.7629 22.2365 22 21.6 22H20C19.8041 22 19.6149 21.9325 19.4685 21.8105C19.3221 21.6884 19.2285 21.5202 19.2056 21.3378L19.2 21.25C19.1998 21.0588 19.1217 20.875 18.9817 20.736C18.8417 20.597 18.6504 20.5133 18.4469 20.5021C18.2433 20.4909 18.0429 20.553 17.8865 20.6757C17.7302 20.7984 17.6297 20.9724 17.6056 21.1622L17.6 21.25C17.6 21.4489 17.5157 21.6397 17.3657 21.7803C17.2157 21.921 17.0122 22 16.8 22H10.4C9.76348 22 9.15303 21.7629 8.70294 21.341C8.25286 20.919 8 20.3467 8 19.75V12.25C8 11.6533 8.25286 11.081 8.70294 10.659C9.15303 10.2371 9.76348 10 10.4 10H16.8ZM18.4 16.75C18.1878 16.75 17.9843 16.829 17.8343 16.9697C17.6843 17.1103 17.6 17.3011 17.6 17.5V18.25C17.6 18.4489 17.6843 18.6397 17.8343 18.7803C17.9843 18.921 18.1878 19 18.4 19C18.6122 19 18.8157 18.921 18.9657 18.7803C19.1157 18.6397 19.2 18.4489 19.2 18.25V17.5C19.2 17.3011 19.1157 17.1103 18.9657 16.9697C18.8157 16.829 18.6122 16.75 18.4 16.75ZM18.4 13C18.2041 13 18.0149 13.0675 17.8685 13.1895C17.7221 13.3116 17.6285 13.4798 17.6056 13.6623L17.6 13.75V14.5C17.6002 14.6912 17.6783 14.875 17.8183 15.014C17.9583 15.153 18.1496 15.2367 18.3531 15.2479C18.5567 15.2591 18.7571 15.197 18.9135 15.0743C19.0698 14.9516 19.1703 14.7776 19.1944 14.5877L19.2 14.5V13.75C19.2 13.5511 19.1157 13.3603 18.9657 13.2197C18.8157 13.079 18.6122 13 18.4 13Z" fill="white"/>
</svg>
