<svg width="32" height="32" viewBox="0 0 32 32" fill="none" xmlns="http://www.w3.org/2000/svg">
<rect width="32" height="32" rx="8" fill="#A089FE"/>
<path fill-rule="evenodd" clip-rule="evenodd" d="M8 10.3796C8 9.74846 8.25072 9.14321 8.69701 8.69695C9.14329 8.2507 9.74859 8 10.3797 8H15.2756C15.9064 8.00035 16.5113 8.25112 16.9573 8.69721L23.3032 15.0427C23.7494 15.4889 24 16.0941 24 16.725C24 17.356 23.7494 17.9611 23.3032 18.4074L18.4089 23.3029C18.188 23.5239 17.9256 23.6992 17.6368 23.8188C17.3481 23.9384 17.0386 24 16.7261 24C16.4135 24 16.104 23.9384 15.8153 23.8188C15.5265 23.6992 15.2642 23.5239 15.0432 23.3029L8.69726 16.9574C8.25094 16.5113 8.00013 15.9061 8 15.2751V10.3796ZM11.9662 11.1727C11.7558 11.1727 11.5541 11.2563 11.4053 11.4051C11.2565 11.5538 11.173 11.7556 11.173 11.9659C11.173 12.1763 11.2565 12.378 11.4053 12.5268C11.5541 12.6755 11.7558 12.7591 11.9662 12.7591C12.1766 12.7591 12.3792 12.6755 12.5279 12.5268C12.6767 12.378 12.7603 12.1763 12.7603 11.9659C12.7603 11.7556 12.6767 11.5538 12.5279 11.4051C12.3792 11.2563 12.1766 11.1727 11.9662 11.1727Z" fill="white"/>
</svg>
