<svg width="28" height="28" viewBox="0 0 28 28" fill="none" xmlns="http://www.w3.org/2000/svg">
<rect width="28" height="28" rx="8" fill="#A089FE"/>
<path d="M20.6359 14.0014H18.5359V7.70264C18.5364 7.57932 18.5043 7.45806 18.4429 7.35113C18.3814 7.24421 18.2928 7.15542 18.1859 7.09376C18.0795 7.03234 17.9588 7 17.8359 7C17.7131 7 17.5924 7.03234 17.4859 7.09376L15.3859 8.29752L13.2859 7.09376C13.1795 7.03234 13.0588 7 12.9359 7C12.8131 7 12.6924 7.03234 12.5859 7.09376L10.4859 8.29752L8.38594 7.09376C8.27953 7.03234 8.15882 7 8.03594 7C7.91307 7 7.79236 7.03234 7.68594 7.09376C7.57912 7.15542 7.49049 7.24421 7.42903 7.35113C7.36757 7.45806 7.33545 7.57932 7.33594 7.70264V18.9004C7.33594 19.4573 7.55719 19.9913 7.95102 20.385C8.34484 20.7788 8.87899 21 9.43594 21H19.2359C19.7929 21 20.327 20.7788 20.7209 20.385C21.1147 19.9913 21.3359 19.4573 21.3359 18.9004V14.7013C21.3359 14.5156 21.2622 14.3376 21.1309 14.2064C20.9996 14.0751 20.8216 14.0014 20.6359 14.0014ZM9.43594 19.6003C9.25029 19.6003 9.07224 19.5265 8.94097 19.3953C8.80969 19.264 8.73594 19.086 8.73594 18.9004V8.9134L10.1359 9.71124C10.244 9.76766 10.3641 9.79712 10.4859 9.79712C10.6078 9.79712 10.7279 9.76766 10.8359 9.71124L12.9359 8.50748L15.0359 9.71124C15.144 9.76766 15.2641 9.79712 15.3859 9.79712C15.5078 9.79712 15.6279 9.76766 15.7359 9.71124L17.1359 8.9134V18.9004C17.1378 19.1392 17.1804 19.3759 17.2619 19.6003H9.43594ZM19.9359 18.9004C19.9359 19.086 19.8622 19.264 19.7309 19.3953C19.5996 19.5265 19.4216 19.6003 19.2359 19.6003C19.0503 19.6003 18.8722 19.5265 18.741 19.3953C18.6097 19.264 18.5359 19.086 18.5359 18.9004V15.4011H19.9359V18.9004Z" fill="white"/>
<path d="M9.87793 12.0449H15.8779V13.3783H9.87793V12.0449ZM10.6279 14.7116V16.0449H15.1279V14.7116H10.6279Z" fill="white"/>
</svg>
