<svg width="38" height="38" viewBox="0 0 38 38" fill="none" xmlns="http://www.w3.org/2000/svg">
<g opacity="0.95">
<path d="M17.0122 13C16.4596 13 16.0013 13.4726 16.0013 14.0425V20.5613C16.0013 21.0478 16.244 21.4926 16.6348 21.7427L21.541 24.8562C21.7591 24.9926 22.0207 25.0341 22.2685 24.9715C22.5162 24.909 22.7296 24.7475 22.8619 24.5226C22.9942 24.2978 23.0344 24.0279 22.9737 23.7725C22.9131 23.517 22.7565 23.2969 22.5384 23.1605L18.0231 20.3667V14.0425C18.0231 13.4726 17.5649 13 17.0122 13Z" fill="white"/>
<path fill-rule="evenodd" clip-rule="evenodd" d="M20.2624 5.35548C19.2125 5.12273 18.1213 5 17.0013 5C8.71707 5 2.00134 11.7157 2.00134 20C2.00134 28.2843 8.71707 35 17.0013 35C25.2856 35 32.0013 28.2843 32.0013 20C32.0013 19.4494 31.9717 18.9058 31.9139 18.3706H29.2952C29.3652 18.9038 29.4013 19.4477 29.4013 20C29.4013 26.8483 23.8497 32.4 17.0013 32.4C10.153 32.4 4.60134 26.8483 4.60134 20C4.60134 13.1517 10.153 7.6 17.0013 7.6C18.1299 7.6 19.2233 7.75077 20.2624 8.03327V5.35548Z" fill="white"/>
<rect x="28.9104" y="2" width="2.18182" height="12" fill="white"/>
<rect x="36.0013" y="6.90906" width="2.18182" height="12" transform="rotate(90 36.0013 6.90906)" fill="white"/>
</g>
</svg>
