<svg width="38" height="38" viewBox="0 0 38 38" fill="none" xmlns="http://www.w3.org/2000/svg">
<g opacity="0.95">
<path d="M31.5 36C33.9853 36 36 33.9853 36 31.5C36 29.0147 33.9853 27 31.5 27C29.0147 27 27 29.0147 27 31.5C27 33.9853 29.0147 36 31.5 36Z" fill="white"/>
<path d="M12 15.4375H14.3333V17.7708H12V15.4375ZM12 21.2708H14.3333V23.6042H12V21.2708ZM12 27.1042H14.3333V29.4375H12V27.1042ZM16.6667 15.4375H26V17.7708H16.6667V15.4375ZM16.6667 21.2708H26V23.6042H16.6667V21.2708ZM16.6667 27.1042H21.3333V29.4375H16.6667V27.1042Z" fill="white"/>
<path d="M8.36364 33.5714V8.07143H11.9091V11.7143H26.0909V8.07143H29.6364V21.4286H32V8.07143C32 7.42733 31.751 6.80961 31.3077 6.35417C30.8644 5.89872 30.2632 5.64286 29.6364 5.64286H26.0909V4.42857C26.0909 3.78447 25.8419 3.16676 25.3986 2.71131C24.9553 2.25587 24.3541 2 23.7273 2H14.2727C13.6459 2 13.0447 2.25587 12.6014 2.71131C12.1581 3.16676 11.9091 3.78447 11.9091 4.42857V5.64286H8.36364C7.73676 5.64286 7.13556 5.89872 6.69229 6.35417C6.24903 6.80961 6 7.42733 6 8.07143V33.5714C6 34.2155 6.24903 34.8332 6.69229 35.2887C7.13556 35.7441 7.73676 36 8.36364 36H21.3636V33.5714H8.36364ZM14.2727 4.42857H23.7273V9.28571H14.2727V4.42857Z" fill="white"/>
</g>
</svg>
