<svg width="12" height="12" viewBox="0 0 12 12" fill="none" xmlns="http://www.w3.org/2000/svg">
<rect width="12" height="12" rx="2" fill="#B3D947"/>
<g clip-path="url(#clip0_740_5419)">
<path d="M6.00115 5.1831C5.78946 5.1831 5.59122 5.26089 5.44112 5.40305C5.29174 5.54521 5.2089 5.73298 5.2089 5.93348C5.2089 6.13399 5.29174 6.32175 5.44112 6.46392C5.59122 6.60541 5.78946 6.68387 6.00115 6.68387C6.21284 6.68387 6.41108 6.60541 6.56118 6.46392C6.71057 6.32175 6.7934 6.13399 6.7934 5.93348C6.7934 5.73298 6.71057 5.54521 6.56118 5.40305C6.48787 5.33308 6.40061 5.2776 6.30447 5.23984C6.20833 5.20208 6.10523 5.1828 6.00115 5.1831ZM8.92024 6.76233L8.45721 6.38747C8.47915 6.26006 8.49048 6.12997 8.49048 6.00054C8.49048 5.87112 8.47915 5.74036 8.45721 5.61361L8.92024 5.23876C8.95522 5.21039 8.98025 5.17262 8.99201 5.13046C9.00377 5.08829 9.00171 5.04373 8.98608 5.00271L8.97971 4.98527C8.85228 4.64776 8.66134 4.33491 8.41614 4.06188L8.4034 4.04779C8.37362 4.01463 8.33394 3.9908 8.28958 3.97942C8.24522 3.96805 8.19826 3.96968 8.15489 3.98409L7.57999 4.17789C7.36759 4.01292 7.13112 3.88283 6.87483 3.7923L6.76367 3.22297C6.75528 3.18008 6.73332 3.14062 6.70069 3.10984C6.66806 3.07906 6.62632 3.05841 6.581 3.05063L6.56189 3.04728C6.19373 2.98424 5.80574 2.98424 5.43758 3.04728L5.41847 3.05063C5.37315 3.05841 5.33141 3.07906 5.29878 3.10984C5.26616 3.14062 5.24419 3.18008 5.2358 3.22297L5.12394 3.79498C4.87007 3.88623 4.63357 4.01601 4.42373 4.17923L3.84458 3.98409C3.80123 3.96956 3.75423 3.96788 3.70985 3.97926C3.66546 3.99064 3.62578 4.01454 3.59607 4.04779L3.58333 4.06188C3.33857 4.3352 3.14768 4.64797 3.01976 4.98527L3.01339 5.00271C2.98153 5.08653 3.00773 5.18041 3.07923 5.23876L3.54793 5.61764C3.52598 5.74371 3.51536 5.87246 3.51536 5.99987C3.51536 6.12863 3.52598 6.25738 3.54793 6.38211L3.08065 6.76099C3.04567 6.78935 3.02064 6.82713 3.00887 6.86929C2.99711 6.91146 2.99918 6.95601 3.01481 6.99704L3.02118 7.01447C3.14933 7.35178 3.33836 7.6636 3.58475 7.93787L3.59749 7.95195C3.62726 7.98511 3.66695 8.00895 3.71131 8.02032C3.75567 8.03169 3.80263 8.03007 3.846 8.01566L4.42514 7.82052C4.63613 7.98481 4.87118 8.11491 5.12536 8.20476L5.23722 8.77678C5.24561 8.81966 5.26757 8.85912 5.3002 8.8899C5.33283 8.92069 5.37457 8.94134 5.41988 8.94912L5.439 8.95247C5.81078 9.01584 6.19152 9.01584 6.5633 8.95247L6.58242 8.94912C6.62773 8.94134 6.66948 8.92069 6.70211 8.8899C6.73473 8.85912 6.7567 8.81966 6.76508 8.77678L6.87624 8.20745C7.13254 8.11625 7.36901 7.98682 7.58141 7.82186L8.15631 8.01566C8.19966 8.03018 8.24665 8.03187 8.29104 8.02049C8.33543 8.00911 8.37511 7.9852 8.40481 7.95195L8.41756 7.93787C8.66394 7.66226 8.85298 7.35178 8.98113 7.01447L8.9875 6.99704C9.01794 6.91388 8.99175 6.82067 8.92024 6.76233ZM6.00115 7.11238C5.31368 7.11238 4.75649 6.58463 4.75649 5.93348C4.75649 5.28234 5.31368 4.75459 6.00115 4.75459C6.68862 4.75459 7.24582 5.28234 7.24582 5.93348C7.24582 6.58463 6.68862 7.11238 6.00115 7.11238Z" fill="white"/>
</g>
<defs>
<clipPath id="clip0_740_5419">
<rect width="6" height="6" fill="white" transform="translate(3 3)"/>
</clipPath>
</defs>
</svg>
