<svg width="12" height="12" viewBox="0 0 12 12" fill="none" xmlns="http://www.w3.org/2000/svg">
<rect width="12" height="12" rx="2" fill="#50AB78"/>
<path d="M7.19922 4.44807H7.79883V8.39844H4.20117V4.44807H4.80078V4.1659C4.80078 4.01623 4.86395 3.87269 4.9764 3.76685C5.08885 3.66102 5.24136 3.60156 5.40039 3.60156H6.59961C6.75864 3.60156 6.91115 3.66102 7.0236 3.76685C7.13605 3.87269 7.19922 4.01623 7.19922 4.1659V4.44807ZM8.09863 4.44807H8.39844C8.55746 4.44807 8.70998 4.50753 8.82243 4.61336C8.93487 4.71919 8.99805 4.86274 8.99805 5.01241V7.8341C8.99805 7.98377 8.93487 8.12731 8.82243 8.23315C8.70998 8.33898 8.55746 8.39844 8.39844 8.39844H8.09863V4.44807ZM3.90137 4.44807V8.39844H3.60156C3.44254 8.39844 3.29002 8.33898 3.17757 8.23315C3.06513 8.12731 3.00195 7.98377 3.00195 7.8341V5.01241C3.00195 4.70202 3.27178 4.44807 3.60156 4.44807H3.90137ZM5.40039 4.1659V4.44807H6.59961V4.1659H5.40039Z" fill="white"/>
</svg>
