<svg width="12" height="12" viewBox="0 0 12 12" fill="none" xmlns="http://www.w3.org/2000/svg">
<rect width="12" height="12" rx="2" fill="#A089FE"/>
<path fill-rule="evenodd" clip-rule="evenodd" d="M3.36328 4.16968C3.36328 3.93301 3.4573 3.70605 3.62466 3.5387C3.79202 3.37136 4.019 3.27734 4.25568 3.27734H6.09164C6.3282 3.27747 6.55502 3.37151 6.72227 3.5388L9.102 5.91835C9.2693 6.08569 9.36328 6.31261 9.36328 6.54923C9.36328 6.78584 9.2693 7.01277 9.102 7.18011L7.26663 9.01593C7.18376 9.09881 7.08538 9.16455 6.9771 9.2094C6.86882 9.25426 6.75276 9.27734 6.63556 9.27734C6.51835 9.27734 6.4023 9.25426 6.29402 9.2094C6.18574 9.16455 6.08735 9.09881 6.00448 9.01593L3.62475 6.63638C3.45739 6.46907 3.36333 6.24214 3.36328 6.0055V4.16968ZM4.85061 4.46712C4.77172 4.46712 4.69606 4.49846 4.64027 4.55424C4.58449 4.61002 4.55315 4.68568 4.55315 4.76456C4.55315 4.84345 4.58449 4.91911 4.64027 4.97489C4.69606 5.03067 4.77172 5.06201 4.85061 5.06201C4.92951 5.06201 5.00546 5.03067 5.06125 4.97489C5.11704 4.91911 5.14838 4.84345 5.14838 4.76456C5.14838 4.68568 5.11704 4.61002 5.06125 4.55424C5.00546 4.49846 4.92951 4.46712 4.85061 4.46712Z" fill="white"/>
</svg>
