<svg width="12" height="12" viewBox="0 0 12 12" fill="none" xmlns="http://www.w3.org/2000/svg">
<rect width="12" height="12" rx="2" fill="#6ECEC8"/>
<path fill-rule="evenodd" clip-rule="evenodd" d="M3.71683 3.3516C3.375 3.7029 3.375 4.2687 3.375 5.4V6.6C3.375 7.7313 3.375 8.2971 3.71683 8.6484C4.05837 9 4.60846 9 5.70833 9H6.29167C7.39154 9 7.94162 9 8.28317 8.6484C8.625 8.2971 8.625 7.7313 8.625 6.6V5.4C8.625 4.2687 8.625 3.7029 8.28317 3.3516C7.94162 3 7.39154 3 6.29167 3H5.70833C4.60846 3 4.05837 3 3.71683 3.3516ZM4.83333 5.175C4.77532 5.175 4.71968 5.19871 4.67865 5.2409C4.63763 5.2831 4.61458 5.34033 4.61458 5.4C4.61458 5.45967 4.63763 5.5169 4.67865 5.5591C4.71968 5.60129 4.77532 5.625 4.83333 5.625H7.16667C7.22468 5.625 7.28032 5.60129 7.32135 5.5591C7.36237 5.5169 7.38542 5.45967 7.38542 5.4C7.38542 5.34033 7.36237 5.2831 7.32135 5.2409C7.28032 5.19871 7.22468 5.175 7.16667 5.175H4.83333ZM4.83333 6.375C4.77532 6.375 4.71968 6.39871 4.67865 6.4409C4.63763 6.4831 4.61458 6.54033 4.61458 6.6C4.61458 6.65967 4.63763 6.7169 4.67865 6.7591C4.71968 6.80129 4.77532 6.825 4.83333 6.825H6.29167C6.34968 6.825 6.40532 6.80129 6.44635 6.7591C6.48737 6.7169 6.51042 6.65967 6.51042 6.6C6.51042 6.54033 6.48737 6.4831 6.44635 6.4409C6.40532 6.39871 6.34968 6.375 6.29167 6.375H4.83333Z" fill="white"/>
</svg>
