<svg width="12" height="12" viewBox="0 0 12 12" fill="none" xmlns="http://www.w3.org/2000/svg">
<rect width="12" height="12" rx="2" fill="#FE9061"/>
<path fill-rule="evenodd" clip-rule="evenodd" d="M6.3 3.52734C6.37348 3.52735 6.4444 3.55515 6.49931 3.60545C6.55422 3.65576 6.5893 3.72508 6.5979 3.80026L6.6 3.83643C6.60008 3.9152 6.62936 3.99098 6.68185 4.04826C6.73435 4.10554 6.80609 4.14002 6.88242 4.14463C6.95875 4.14925 7.03391 4.12366 7.09255 4.0731C7.15119 4.02254 7.18887 3.95082 7.1979 3.87259L7.2 3.83643C7.2 3.75445 7.23161 3.67584 7.28787 3.61787C7.34413 3.55991 7.42044 3.52734 7.5 3.52734H8.1C8.3387 3.52734 8.56761 3.62504 8.7364 3.79893C8.90518 3.97282 9 4.20867 9 4.45459V7.54541C9 7.79133 8.90518 8.02718 8.7364 8.20107C8.56761 8.37496 8.3387 8.47266 8.1 8.47266H7.5C7.42652 8.47265 7.3556 8.44485 7.30069 8.39455C7.24578 8.34424 7.2107 8.27492 7.2021 8.19974L7.2 8.16357C7.19992 8.0848 7.17064 8.00902 7.11815 7.95174C7.06565 7.89446 6.99391 7.85998 6.91758 7.85537C6.84125 7.85075 6.76609 7.87634 6.70745 7.9269C6.64881 7.97746 6.61113 8.04918 6.6021 8.12741L6.6 8.16357C6.6 8.24555 6.56839 8.32416 6.51213 8.38213C6.45587 8.44009 6.37957 8.47266 6.3 8.47266H3.9C3.66131 8.47266 3.43239 8.37496 3.2636 8.20107C3.09482 8.02718 3 7.79133 3 7.54541V4.45459C3 4.20867 3.09482 3.97282 3.2636 3.79893C3.43239 3.62504 3.66131 3.52734 3.9 3.52734H6.3ZM6.9 6.30908C6.82044 6.30908 6.74413 6.34165 6.68787 6.39961C6.63161 6.45757 6.6 6.53619 6.6 6.61816V6.92725C6.6 7.00922 6.63161 7.08784 6.68787 7.1458C6.74413 7.20376 6.82044 7.23633 6.9 7.23633C6.97957 7.23633 7.05587 7.20376 7.11213 7.1458C7.16839 7.08784 7.2 7.00922 7.2 6.92725V6.61816C7.2 6.53619 7.16839 6.45757 7.11213 6.39961C7.05587 6.34165 6.97957 6.30908 6.9 6.30908ZM6.9 4.76367C6.82652 4.76368 6.7556 4.79148 6.70069 4.84178C6.64578 4.89209 6.6107 4.96141 6.6021 5.03659L6.6 5.07275V5.38184C6.60008 5.46061 6.62936 5.53639 6.68185 5.59367C6.73435 5.65096 6.80609 5.68543 6.88242 5.69004C6.95875 5.69466 7.03391 5.66907 7.09255 5.61851C7.15119 5.56795 7.18887 5.49623 7.1979 5.418L7.2 5.38184V5.07275C7.2 4.99078 7.16839 4.91216 7.11213 4.8542C7.05587 4.79624 6.97957 4.76367 6.9 4.76367Z" fill="white"/>
</svg>
