<svg width="12" height="12" viewBox="0 0 12 12" fill="none" xmlns="http://www.w3.org/2000/svg">
<rect width="12" height="12" rx="2" fill="#4577F6"/>
<path d="M8.87582 5.95084L6.1497 3.06571C6.13007 3.04488 6.10676 3.02835 6.08109 3.01708C6.05542 3.0058 6.02791 3 6.00012 3C5.97234 3 5.94482 3.0058 5.91916 3.01708C5.89349 3.02835 5.87018 3.04488 5.85055 3.06571L3.12443 5.95084C3.04501 6.03496 3 6.14921 3 6.26838C3 6.51581 3.18995 6.71699 3.42358 6.71699H3.71082V8.77569C3.71082 8.89976 3.80546 9 3.92261 9H5.57655V7.42986H6.31781V9H8.07764C8.19479 9 8.28943 8.89976 8.28943 8.77569V6.71699H8.57667C8.68918 6.71699 8.79706 6.67002 8.87648 6.58521C9.04128 6.40997 9.04128 6.12608 8.87582 5.95084Z" fill="white"/>
</svg>
