<svg width="12" height="12" viewBox="0 0 12 12" fill="none" xmlns="http://www.w3.org/2000/svg">
<rect width="12" height="12" rx="2" fill="#52C0FE"/>
<g clip-path="url(#clip0_729_3955)">
<path d="M6 3C5.59011 3 5.19701 3.15804 4.90718 3.43934C4.61735 3.72064 4.45452 4.10218 4.45452 4.5C4.45452 4.89782 4.61735 5.27936 4.90718 5.56066C5.19701 5.84196 5.59011 6 6 6C6.40989 6 6.80299 5.84196 7.09282 5.56066C7.38265 5.27936 7.54548 4.89782 7.54548 4.5C7.54548 4.10218 7.38265 3.72064 7.09282 3.43934C6.80299 3.15804 6.40989 3 6 3ZM4.07163 6.375C3.96987 6.37461 3.86904 6.39371 3.7749 6.43122C3.68077 6.46873 3.5952 6.52391 3.52308 6.59358C3.45097 6.66326 3.39374 6.74607 3.35467 6.83726C3.3156 6.92846 3.29546 7.02624 3.29541 7.125C3.29541 7.75912 3.61726 8.23725 4.12031 8.54888C4.61564 8.85525 5.28328 9 6 9C6.71672 9 7.38436 8.85525 7.87969 8.54888C8.38274 8.23763 8.70459 7.75875 8.70459 7.125C8.70459 6.92609 8.62318 6.73532 8.47826 6.59467C8.33334 6.45402 8.13679 6.375 7.93185 6.375H4.07163Z" fill="white"/>
</g>
<defs>
<clipPath id="clip0_729_3955">
<rect width="6" height="6" fill="white" transform="translate(3 3)"/>
</clipPath>
</defs>
</svg>
