<svg width="12" height="12" viewBox="0 0 12 12" fill="none" xmlns="http://www.w3.org/2000/svg">
<rect width="12" height="12" rx="2" fill="#3697E5"/>
<path d="M3.25507 3C3.18742 3 3.12254 3.02634 3.07471 3.07322C3.02687 3.12011 3 3.1837 3 3.25C3 3.3163 3.02687 3.37989 3.07471 3.42678C3.12254 3.47366 3.18742 3.5 3.25507 3.5H3.38057C3.43596 3.50009 3.48981 3.51786 3.53398 3.5506C3.57816 3.58334 3.61026 3.62929 3.62544 3.6815L4.43453 6.4565C4.48029 6.6131 4.57683 6.75085 4.70955 6.8489C4.84227 6.94696 5.00395 7 5.17016 7H7.50101C7.65397 7.00003 7.80343 6.95512 7.9301 6.87107C8.05677 6.78703 8.15484 6.6677 8.21164 6.5285L8.96359 4.6855C8.9945 4.60966 9.00599 4.52756 8.99706 4.44637C8.98812 4.36517 8.95902 4.28736 8.91232 4.21973C8.86561 4.1521 8.80272 4.09671 8.72913 4.05841C8.65554 4.02011 8.5735 4.00005 8.49018 4H4.24883L4.11569 3.544C4.07004 3.38739 3.97362 3.24959 3.84099 3.15145C3.70837 3.0533 3.54675 3.00014 3.38057 3H3.25507ZM5.29565 9C5.39614 9 5.49565 8.9806 5.58849 8.94291C5.68133 8.90522 5.76568 8.84997 5.83674 8.78033C5.9078 8.71069 5.96416 8.62801 6.00262 8.53701C6.04108 8.44602 6.06087 8.34849 6.06087 8.25C6.06087 8.15151 6.04108 8.05398 6.00262 7.96299C5.96416 7.87199 5.9078 7.78931 5.83674 7.71967C5.76568 7.65003 5.68133 7.59478 5.58849 7.55709C5.49565 7.5194 5.39614 7.5 5.29565 7.5C5.0927 7.5 4.89807 7.57902 4.75456 7.71967C4.61106 7.86032 4.53043 8.05109 4.53043 8.25C4.53043 8.44891 4.61106 8.63968 4.75456 8.78033C4.89807 8.92098 5.0927 9 5.29565 9ZM7.33623 9C7.43672 9 7.53623 8.9806 7.62907 8.94291C7.72191 8.90522 7.80626 8.84997 7.87732 8.78033C7.94838 8.71069 8.00474 8.62801 8.0432 8.53701C8.08166 8.44602 8.10145 8.34849 8.10145 8.25C8.10145 8.15151 8.08166 8.05398 8.0432 7.96299C8.00474 7.87199 7.94838 7.78931 7.87732 7.71967C7.80626 7.65003 7.72191 7.59478 7.62907 7.55709C7.53623 7.5194 7.43672 7.5 7.33623 7.5C7.13328 7.5 6.93865 7.57902 6.79514 7.71967C6.65163 7.86032 6.57101 8.05109 6.57101 8.25C6.57101 8.44891 6.65163 8.63968 6.79514 8.78033C6.93865 8.92098 7.13328 9 7.33623 9Z" fill="white"/>
</svg>
