<svg width="12" height="12" viewBox="0 0 12 12" fill="none" xmlns="http://www.w3.org/2000/svg">
<rect width="12" height="12" rx="2" fill="#FFD749"/>
<path d="M5.9212 3.01636C5.9461 3.00557 5.97291 3 6 3C6.02709 3 6.0539 3.00557 6.0788 3.01636L8.8 4.1961L6 5.40982L3.2 4.1961L5.9212 3.01636ZM3 4.5497V7.65277C3 7.73369 3.048 7.80651 3.1212 7.83887L5.8 9V5.76341L3 4.5497ZM6.2 5.76341L9 4.5497V7.65277C9.00003 7.69239 8.98857 7.73114 8.96702 7.76423C8.94548 7.79731 8.9148 7.82327 8.8788 7.83887L6.2 9V5.76341Z" fill="white"/>
</svg>
