<svg width="12" height="12" viewBox="0 0 12 12" fill="none" xmlns="http://www.w3.org/2000/svg">
<rect width="12" height="12" rx="2" fill="#F36E6E"/>
<path fill-rule="evenodd" clip-rule="evenodd" d="M3.48227 3.64985C3.48227 3.29106 3.77317 3 4.13229 3H6.1875C6.54705 3 6.83796 3.29106 6.83796 3.64985V5.14503C6.6705 5.25169 6.52796 5.39308 6.42001 5.55961C6.31205 5.72614 6.24121 5.91392 6.21227 6.11021C6.18334 6.3065 6.19699 6.50671 6.25231 6.69726C6.30763 6.88782 6.40332 7.06426 6.53289 7.21462C6.25653 7.39091 6.0291 7.63395 5.87162 7.92128C5.71414 8.20861 5.63168 8.53095 5.63187 8.85854C5.63187 8.90698 5.63658 8.95413 5.64645 9H3.6968C3.68993 9 3.68307 9 3.6762 8.99914H3.3218C3.23645 8.99914 3.1546 8.96527 3.09425 8.90498C3.0339 8.84469 3 8.76291 3 8.67765C3 8.59238 3.0339 8.5106 3.09425 8.45031C3.1546 8.39002 3.23645 8.35615 3.3218 8.35615H3.48227V5.40866H5.3474C5.41852 5.40866 5.48673 5.38043 5.53702 5.33019C5.58731 5.27995 5.61556 5.2118 5.61556 5.14074C5.61556 5.06969 5.58731 5.00154 5.53702 4.9513C5.48673 4.90106 5.41852 4.87283 5.3474 4.87283H3.48227V4.29413H4.75229C4.82341 4.29413 4.89162 4.26591 4.94191 4.21566C4.9922 4.16542 5.02045 4.09728 5.02045 4.02622C5.02045 3.95516 4.9922 3.88702 4.94191 3.83678C4.89162 3.78653 4.82341 3.75831 4.75229 3.75831H3.48227V3.64985ZM8.43364 6.31185C8.43364 6.53696 8.34413 6.75284 8.18481 6.91201C8.02549 7.07118 7.80941 7.16061 7.5841 7.16061C7.35878 7.16061 7.1427 7.07118 6.98338 6.91201C6.82406 6.75284 6.73455 6.53696 6.73455 6.31185C6.73455 6.08675 6.82406 5.87087 6.98338 5.71169C7.1427 5.55252 7.35878 5.4631 7.5841 5.4631C7.80941 5.4631 8.02549 5.55252 8.18481 5.71169C8.34413 5.87087 8.43364 6.08675 8.43364 6.31185ZM7.5841 7.44352C7.20857 7.44352 6.84843 7.59256 6.5829 7.85785C6.31737 8.12313 6.16819 8.48294 6.16819 8.85811C6.16814 8.87672 6.17176 8.89517 6.17885 8.91238C6.18594 8.92959 6.19636 8.94524 6.20951 8.95842C6.22266 8.9716 6.23829 8.98206 6.2555 8.98919C6.27271 8.99633 6.29115 9 6.30978 9H8.85841C8.89596 9 8.93198 8.9851 8.95853 8.95857C8.98508 8.93204 9 8.89606 9 8.85854C9 8.48337 8.85082 8.12356 8.58529 7.85828C8.31976 7.59299 7.95962 7.44352 7.5841 7.44352Z" fill="white"/>
</svg>
