<svg width="20" height="20" viewBox="0 0 20 20" fill="none" xmlns="http://www.w3.org/2000/svg">
<path d="M3.14286 17.7778C3.14286 19 4.17143 20 5.42857 20H14.5714C15.8286 20 16.8571 19 16.8571 17.7778V6.66667C16.8571 5.44444 15.8286 4.44444 14.5714 4.44444H5.42857C4.17143 4.44444 3.14286 5.44444 3.14286 6.66667V17.7778ZM6.76571 9.07778C7.21143 8.64445 7.93143 8.64445 8.37714 9.07778L10 10.6556L11.6229 9.07778C12.0686 8.64445 12.7886 8.64445 13.2343 9.07778C13.68 9.51111 13.68 10.2111 13.2343 10.6444L11.6114 12.2222L13.2343 13.8C13.68 14.2333 13.68 14.9333 13.2343 15.3667C12.7886 15.8 12.0686 15.8 11.6229 15.3667L10 13.7889L8.37714 15.3667C7.93143 15.8 7.21143 15.8 6.76571 15.3667C6.32 14.9333 6.32 14.2333 6.76571 13.8L8.38857 12.2222L6.76571 10.6444C6.32 10.2222 6.32 9.51111 6.76571 9.07778ZM14 1.11111L13.1886 0.322222C12.9829 0.122222 12.6857 0 12.3886 0H7.61143C7.31429 0 7.01714 0.122222 6.81143 0.322222L6 1.11111H3.14286C2.51429 1.11111 2 1.61111 2 2.22222C2 2.83333 2.51429 3.33333 3.14286 3.33333H16.8571C17.4857 3.33333 18 2.83333 18 2.22222C18 1.61111 17.4857 1.11111 16.8571 1.11111H14Z" fill="#65768F"/>
</svg>
