<svg width="32" height="32" viewBox="0 0 32 32" fill="none" xmlns="http://www.w3.org/2000/svg">
<path fill-rule="evenodd" clip-rule="evenodd" d="M17.2563 9.29289C16.9146 9.68342 16.9146 10.3166 17.2563 10.7071L21.8876 16L17.2563 21.2929C16.9146 21.6834 16.9146 22.3166 17.2563 22.7071C17.598 23.0976 18.152 23.0976 18.4937 22.7071L23.7437 16.7071C24.0854 16.3166 24.0854 15.6834 23.7437 15.2929L18.4937 9.29289C18.152 8.90237 17.598 8.90237 17.2563 9.29289Z" fill="#9E9E9E" fill-opacity="0.5"/>
<path fill-rule="evenodd" clip-rule="evenodd" d="M9.29289 9.29289C8.90237 9.68342 8.90237 10.3166 9.29289 10.7071L14.5858 16L9.29289 21.2929C8.90237 21.6834 8.90237 22.3166 9.29289 22.7071C9.68342 23.0976 10.3166 23.0976 10.7071 22.7071L16.7071 16.7071C17.0976 16.3166 17.0976 15.6834 16.7071 15.2929L10.7071 9.29289C10.3166 8.90237 9.68342 8.90237 9.29289 9.29289Z" fill="#9E9E9E" fill-opacity="0.5"/>
</svg>
