<svg width="32" height="32" viewBox="0 0 32 32" fill="none" xmlns="http://www.w3.org/2000/svg">
<path fill-rule="evenodd" clip-rule="evenodd" d="M15.7437 9.29289C16.0854 9.68342 16.0854 10.3166 15.7437 10.7071L11.1124 16L15.7437 21.2929C16.0854 21.6834 16.0854 22.3166 15.7437 22.7071C15.402 23.0976 14.848 23.0976 14.5063 22.7071L9.25628 16.7071C8.91457 16.3166 8.91457 15.6834 9.25628 15.2929L14.5063 9.29289C14.848 8.90237 15.402 8.90237 15.7437 9.29289Z" fill="#9E9E9E"/>
<path fill-rule="evenodd" clip-rule="evenodd" d="M23.7071 9.29289C24.0976 9.68342 24.0976 10.3166 23.7071 10.7071L18.4142 16L23.7071 21.2929C24.0976 21.6834 24.0976 22.3166 23.7071 22.7071C23.3166 23.0976 22.6834 23.0976 22.2929 22.7071L16.2929 16.7071C15.9024 16.3166 15.9024 15.6834 16.2929 15.2929L22.2929 9.29289C22.6834 8.90237 23.3166 8.90237 23.7071 9.29289Z" fill="#9E9E9E"/>
</svg>
